<svg xmlns="http://www.w3.org/2000/svg" width="42" height="42" viewBox="0 0 42 42">
  <g id="Group_14353" data-name="Group 14353" transform="translate(-1252 -5887)">
    <g id="Group_14351" data-name="Group 14351">
      <rect id="Rectangle_68" data-name="Rectangle 68" width="42" height="42" rx="6" transform="translate(1252 5887)" fill="#272727"/>
      <path id="Path_481" data-name="Path 481" d="M6633.5,6190h-6.313a5.194,5.194,0,0,0-5.185,5.2v6.313a5.194,5.194,0,0,0,5.185,5.187h6.313a5.2,5.2,0,0,0,5.187-5.187V6195.2a5.2,5.2,0,0,0-5.187-5.2Zm1.9,3.945a.639.639,0,0,0-1.277,0,.639.639,0,0,0,1.277,0Zm-5.055.282a4.134,4.134,0,0,0,0,8.268,4.055,4.055,0,0,0,2.912-1.222,4.1,4.1,0,0,0,0-5.843A4.037,4.037,0,0,0,6630.342,6194.228Zm0,6.839a2.715,2.715,0,0,1-1.917-.808,2.706,2.706,0,1,1,3.834,0A2.713,2.713,0,0,1,6630.342,6201.066Zm6.914.45a3.668,3.668,0,0,1-1.108,2.65,3.751,3.751,0,0,1-2.649,1.109h-6.313a3.829,3.829,0,0,1-2.667-1.109,3.733,3.733,0,0,1-1.09-2.65V6195.2a3.746,3.746,0,0,1,1.09-2.667,3.827,3.827,0,0,1,2.667-1.109h6.313a3.748,3.748,0,0,1,2.649,1.109,3.681,3.681,0,0,1,1.108,2.667Z" transform="translate(-5357.343 -290.352)" fill="#fefefe" fill-rule="evenodd"/>
    </g>
  </g>
</svg>
