<svg
  xmlns="http://www.w3.org/2000/svg"
  width="42"
  height="42"
  viewBox="0 0 42 42"
>
  <g
    id="Group_14350"
    data-name="Group 14350"
    transform="translate(-1314 -5887)"
  >
    <rect
      id="Rectangle_69"
      data-name="Rectangle 69"
      width="42"
      height="42"
      rx="6"
      transform="translate(1314 5887)"
      fill="#272727"
    />
    <g
      id="Group_14349"
      data-name="Group 14349"
      transform="translate(-2.455 0.01)"
    >
      <path
        id="Path_478"
        data-name="Path 478"
        d="M3677.148,3390a2.152,2.152,0,0,1,2.148,2.148,2.148,2.148,0,1,1-2.148-2.148Z"
        transform="translate(-2346.475 2509.441)"
        fill="#fefefe"
        fill-rule="evenodd"
      />
      <path
        id="Path_482"
        data-name="Path 482"
        d="M3690.137,3646.99h-2.529a.6.6,0,0,1-.608-.583v-10.8a.6.6,0,0,1,.608-.608h2.529a.6.6,0,0,1,.583.608v10.8A.592.592,0,0,1,3690.137,3646.99Z"
        transform="translate(-2358.321 2270.254)"
        fill="#fefefe"
        fill-rule="evenodd"
      />
      <path
        id="Path_483"
        data-name="Path 483"
        d="M3948.625,3627.086a4.085,4.085,0,0,0-4.11-4.086h-.632a3.62,3.62,0,0,0-2.992,1.557,1.371,1.371,0,0,0-.194.316h-.049v-1.338a.244.244,0,0,0-.243-.243h-3.162a.262.262,0,0,0-.243.243v11.5a.261.261,0,0,0,.243.243h3.235a.244.244,0,0,0,.243-.243v-6.64a2.1,2.1,0,0,1,3.575-1.508,2.161,2.161,0,0,1,.608,1.483v6.664a.244.244,0,0,0,.243.243h3.235a.244.244,0,0,0,.243-.243v-7.953Z"
        transform="translate(-2602.241 2281.963)"
        fill="#fefefe"
        fill-rule="evenodd"
      />
    </g>
  </g>
</svg>
