<svg xmlns="http://www.w3.org/2000/svg" width="42" height="42" viewBox="0 0 42 42">
  <g id="Group_14352" data-name="Group 14352" transform="translate(-1190 -5887)">
    <rect id="Rectangle_67" data-name="Rectangle 67" width="42" height="42" rx="6" transform="translate(1190 5887)" fill="#272727"/>
    <path id="Path_479" data-name="Path 479" d="M537,6285.105a9.823,9.823,0,0,0,15.064-8.3v-.4a7.622,7.622,0,0,0,1.7-1.768,7.508,7.508,0,0,1-1.948.5h0a3.577,3.577,0,0,0,1.5-1.912,10.956,10.956,0,0,1-1.66.7c-.162.053-.343.108-.505.162a3.419,3.419,0,0,0-2.526-1.1,3.457,3.457,0,0,0-3.446,3.446,3.658,3.658,0,0,0,.09.776,10.312,10.312,0,0,1-7.072-3.572s-1.642,2.255.992,4.564a3.584,3.584,0,0,1-1.5-.45,3.285,3.285,0,0,0,2.724,3.427,3.147,3.147,0,0,1-1.516.055,3.411,3.411,0,0,0,3.157,2.417,6.626,6.626,0,0,1-5.051,1.444Z" transform="translate(666.075 -371.916)" fill="#fff" fill-rule="evenodd"/>
  </g>
</svg>
