<svg width="37" height="62" viewBox="0 0 37 62" fill="none" xmlns="http://www.w3.org/2000/svg">
<path d="M30.8333 12.4H23.6389L22.6111 14.4667H14.3889L13.3611 12.4H6.16667C4.53117 12.4 2.96265 13.0532 1.80618 14.2159C0.649701 15.3787 0 16.9557 0 18.6V52.7C0 54.3443 0.649701 55.9213 1.80618 57.0841C2.96265 58.2468 4.53117 58.9 6.16667 58.9V59.9333C6.16667 60.4814 6.38323 61.0071 6.76873 61.3947C7.15422 61.7823 7.67705 62 8.22222 62C8.76739 62 9.29023 61.7823 9.67572 61.3947C10.0612 61.0071 10.2778 60.4814 10.2778 59.9333V58.9H26.7222V59.9333C26.7222 60.4814 26.9388 61.0071 27.3243 61.3947C27.7098 61.7823 28.2326 62 28.7778 62C29.3229 62 29.8458 61.7823 30.2313 61.3947C30.6168 61.0071 30.8333 60.4814 30.8333 59.9333V58.9C32.4688 58.9 34.0374 58.2468 35.1938 57.0841C36.3503 55.9213 37 54.3443 37 52.7V18.6C37 16.9557 36.3503 15.3787 35.1938 14.2159C34.0374 13.0532 32.4688 12.4 30.8333 12.4ZM10.2778 49.6C10.2778 50.1481 10.0612 50.6738 9.67572 51.0614C9.29023 51.4489 8.76739 51.6667 8.22222 51.6667C7.67705 51.6667 7.15422 51.4489 6.76873 51.0614C6.38323 50.6738 6.16667 50.1481 6.16667 49.6V23.7667C6.16667 23.2186 6.38323 22.6929 6.76873 22.3053C7.15422 21.9177 7.67705 21.7 8.22222 21.7C8.76739 21.7 9.29023 21.9177 9.67572 22.3053C10.0612 22.6929 10.2778 23.2186 10.2778 23.7667V49.6ZM20.5556 49.6C20.5556 50.1481 20.339 50.6738 19.9535 51.0614C19.568 51.4489 19.0452 51.6667 18.5 51.6667C17.9548 51.6667 17.432 51.4489 17.0465 51.0614C16.661 50.6738 16.4444 50.1481 16.4444 49.6V23.7667C16.4444 23.2186 16.661 22.6929 17.0465 22.3053C17.432 21.9177 17.9548 21.7 18.5 21.7C19.0452 21.7 19.568 21.9177 19.9535 22.3053C20.339 22.6929 20.5556 23.2186 20.5556 23.7667V49.6ZM30.8333 49.6C30.8333 50.1481 30.6168 50.6738 30.2313 51.0614C29.8458 51.4489 29.3229 51.6667 28.7778 51.6667C28.2326 51.6667 27.7098 51.4489 27.3243 51.0614C26.9388 50.6738 26.7222 50.1481 26.7222 49.6V23.7667C26.7222 23.2186 26.9388 22.6929 27.3243 22.3053C27.7098 21.9177 28.2326 21.7 28.7778 21.7C29.3229 21.7 29.8458 21.9177 30.2313 22.3053C30.6168 22.6929 30.8333 23.2186 30.8333 23.7667V49.6ZM11.3056 5.16667H25.6944V10.3333H27.75V2.06667C27.75 1.51855 27.5334 0.992888 27.1479 0.605313C26.7625 0.217737 26.2396 0 25.6944 0H11.3056C10.7604 0 10.2375 0.217737 9.85206 0.605313C9.46657 0.992888 9.25 1.51855 9.25 2.06667V10.3333H11.3056V5.16667Z" fill="#261F5E"/>
</svg>
