<svg width="17" height="29" viewBox="0 0 17 29" fill="none" xmlns="http://www.w3.org/2000/svg">
<path d="M14.1667 5.66667H10.8611L10.3889 6.61111H6.61111L6.13889 5.66667H2.83333C2.08189 5.66667 1.36122 5.96518 0.829864 6.49653C0.298511 7.02788 0 7.74855 0 8.5V24.0833C0 24.8348 0.298511 25.5555 0.829864 26.0868C1.36122 26.6182 2.08189 26.9167 2.83333 26.9167V27.3889C2.83333 27.6394 2.93284 27.8796 3.10995 28.0567C3.28707 28.2338 3.5273 28.3333 3.77778 28.3333C4.02826 28.3333 4.26848 28.2338 4.4456 28.0567C4.62272 27.8796 4.72222 27.6394 4.72222 27.3889V26.9167H12.2778V27.3889C12.2778 27.6394 12.3773 27.8796 12.5544 28.0567C12.7315 28.2338 12.9717 28.3333 13.2222 28.3333C13.4727 28.3333 13.7129 28.2338 13.89 28.0567C14.0672 27.8796 14.1667 27.6394 14.1667 27.3889V26.9167C14.9181 26.9167 15.6388 26.6182 16.1701 26.0868C16.7015 25.5555 17 24.8348 17 24.0833V8.5C17 7.74855 16.7015 7.02788 16.1701 6.49653C15.6388 5.96518 14.9181 5.66667 14.1667 5.66667ZM4.72222 22.6667C4.72222 22.9172 4.62272 23.1574 4.4456 23.3345C4.26848 23.5116 4.02826 23.6111 3.77778 23.6111C3.5273 23.6111 3.28707 23.5116 3.10995 23.3345C2.93284 23.1574 2.83333 22.9172 2.83333 22.6667V10.8611C2.83333 10.6106 2.93284 10.3704 3.10995 10.1933C3.28707 10.0162 3.5273 9.91667 3.77778 9.91667C4.02826 9.91667 4.26848 10.0162 4.4456 10.1933C4.62272 10.3704 4.72222 10.6106 4.72222 10.8611V22.6667ZM9.44444 22.6667C9.44444 22.9172 9.34494 23.1574 9.16782 23.3345C8.99071 23.5116 8.75048 23.6111 8.5 23.6111C8.24952 23.6111 8.00929 23.5116 7.83218 23.3345C7.65506 23.1574 7.55556 22.9172 7.55556 22.6667V10.8611C7.55556 10.6106 7.65506 10.3704 7.83218 10.1933C8.00929 10.0162 8.24952 9.91667 8.5 9.91667C8.75048 9.91667 8.99071 10.0162 9.16782 10.1933C9.34494 10.3704 9.44444 10.6106 9.44444 10.8611V22.6667ZM14.1667 22.6667C14.1667 22.9172 14.0672 23.1574 13.89 23.3345C13.7129 23.5116 13.4727 23.6111 13.2222 23.6111C12.9717 23.6111 12.7315 23.5116 12.5544 23.3345C12.3773 23.1574 12.2778 22.9172 12.2778 22.6667V10.8611C12.2778 10.6106 12.3773 10.3704 12.5544 10.1933C12.7315 10.0162 12.9717 9.91667 13.2222 9.91667C13.4727 9.91667 13.7129 10.0162 13.89 10.1933C14.0672 10.3704 14.1667 10.6106 14.1667 10.8611V22.6667ZM5.19444 2.36111H11.8056V4.72222H12.75V0.944444C12.75 0.693962 12.6505 0.453739 12.4734 0.276621C12.2963 0.0995036 12.056 0 11.8056 0H5.19444C4.94396 0 4.70374 0.0995036 4.52662 0.276621C4.3495 0.453739 4.25 0.693962 4.25 0.944444V4.72222H5.19444V2.36111Z" fill="#261F5E"/>
</svg>
