<svg width="43" height="72" viewBox="0 0 43 72" fill="none" xmlns="http://www.w3.org/2000/svg">
<path d="M35.8333 14.4H27.4722L26.2778 16.8H16.7222L15.5278 14.4H7.16667C5.26595 14.4 3.44308 15.1586 2.09907 16.5088C0.755058 17.8591 0 19.6904 0 21.6V61.2C0 63.1096 0.755058 64.9409 2.09907 66.2912C3.44308 67.6414 5.26595 68.4 7.16667 68.4V69.6C7.16667 70.2365 7.41835 70.847 7.86636 71.2971C8.31436 71.7471 8.92198 72 9.55556 72C10.1891 72 10.7968 71.7471 11.2448 71.2971C11.6928 70.847 11.9444 70.2365 11.9444 69.6V68.4H31.0556V69.6C31.0556 70.2365 31.3072 70.847 31.7552 71.2971C32.2032 71.7471 32.8109 72 33.4444 72C34.078 72 34.6856 71.7471 35.1336 71.2971C35.5816 70.847 35.8333 70.2365 35.8333 69.6V68.4C37.7341 68.4 39.5569 67.6414 40.9009 66.2912C42.2449 64.9409 43 63.1096 43 61.2V21.6C43 19.6904 42.2449 17.8591 40.9009 16.5088C39.5569 15.1586 37.7341 14.4 35.8333 14.4ZM11.9444 57.6C11.9444 58.2365 11.6928 58.847 11.2448 59.2971C10.7968 59.7471 10.1891 60 9.55556 60C8.92198 60 8.31436 59.7471 7.86636 59.2971C7.41835 58.847 7.16667 58.2365 7.16667 57.6V27.6C7.16667 26.9635 7.41835 26.353 7.86636 25.9029C8.31436 25.4529 8.92198 25.2 9.55556 25.2C10.1891 25.2 10.7968 25.4529 11.2448 25.9029C11.6928 26.353 11.9444 26.9635 11.9444 27.6V57.6ZM23.8889 57.6C23.8889 58.2365 23.6372 58.847 23.1892 59.2971C22.7412 59.7471 22.1336 60 21.5 60C20.8664 60 20.2588 59.7471 19.8108 59.2971C19.3628 58.847 19.1111 58.2365 19.1111 57.6V27.6C19.1111 26.9635 19.3628 26.353 19.8108 25.9029C20.2588 25.4529 20.8664 25.2 21.5 25.2C22.1336 25.2 22.7412 25.4529 23.1892 25.9029C23.6372 26.353 23.8889 26.9635 23.8889 27.6V57.6ZM35.8333 57.6C35.8333 58.2365 35.5816 58.847 35.1336 59.2971C34.6856 59.7471 34.078 60 33.4444 60C32.8109 60 32.2032 59.7471 31.7552 59.2971C31.3072 58.847 31.0556 58.2365 31.0556 57.6V27.6C31.0556 26.9635 31.3072 26.353 31.7552 25.9029C32.2032 25.4529 32.8109 25.2 33.4444 25.2C34.078 25.2 34.6856 25.4529 35.1336 25.9029C35.5816 26.353 35.8333 26.9635 35.8333 27.6V57.6ZM13.1389 6H29.8611V12H32.25V2.4C32.25 1.76348 31.9983 1.15303 31.5503 0.702944C31.1023 0.252856 30.4947 0 29.8611 0H13.1389C12.5053 0 11.8977 0.252856 11.4497 0.702944C11.0017 1.15303 10.75 1.76348 10.75 2.4V12H13.1389V6Z" fill="#261F5E"/>
</svg>
