<svg width="49" height="81" viewBox="0 0 49 81" fill="none" xmlns="http://www.w3.org/2000/svg">
<path d="M40.3125 16.125H30.9062L29.5625 18.8125H18.8125L17.4688 16.125H8.0625C5.92419 16.125 3.87346 16.9744 2.36145 18.4865C0.84944 19.9985 0 22.0492 0 24.1875V68.5312C0 70.6696 0.84944 72.7203 2.36145 74.2323C3.87346 75.7443 5.92419 76.5938 8.0625 76.5938V77.9375C8.0625 78.6503 8.34565 79.3338 8.84965 79.8379C9.35365 80.3419 10.0372 80.625 10.75 80.625C11.4628 80.625 12.1463 80.3419 12.6503 79.8379C13.1544 79.3338 13.4375 78.6503 13.4375 77.9375V76.5938H34.9375V77.9375C34.9375 78.6503 35.2206 79.3338 35.7246 79.8379C36.2287 80.3419 36.9122 80.625 37.625 80.625C38.3378 80.625 39.0213 80.3419 39.5254 79.8379C40.0294 79.3338 40.3125 78.6503 40.3125 77.9375V76.5938C42.4508 76.5938 44.5015 75.7443 46.0135 74.2323C47.5256 72.7203 48.375 70.6696 48.375 68.5312V24.1875C48.375 22.0492 47.5256 19.9985 46.0135 18.4865C44.5015 16.9744 42.4508 16.125 40.3125 16.125ZM13.4375 64.5C13.4375 65.2128 13.1544 65.8963 12.6503 66.4004C12.1463 66.9044 11.4628 67.1875 10.75 67.1875C10.0372 67.1875 9.35365 66.9044 8.84965 66.4004C8.34565 65.8963 8.0625 65.2128 8.0625 64.5V30.9062C8.0625 30.1935 8.34565 29.5099 8.84965 29.0059C9.35365 28.5019 10.0372 28.2188 10.75 28.2188C11.4628 28.2188 12.1463 28.5019 12.6503 29.0059C13.1544 29.5099 13.4375 30.1935 13.4375 30.9062V64.5ZM26.875 64.5C26.875 65.2128 26.5919 65.8963 26.0879 66.4004C25.5838 66.9044 24.9003 67.1875 24.1875 67.1875C23.4747 67.1875 22.7912 66.9044 22.2872 66.4004C21.7831 65.8963 21.5 65.2128 21.5 64.5V30.9062C21.5 30.1935 21.7831 29.5099 22.2872 29.0059C22.7912 28.5019 23.4747 28.2188 24.1875 28.2188C24.9003 28.2188 25.5838 28.5019 26.0879 29.0059C26.5919 29.5099 26.875 30.1935 26.875 30.9062V64.5ZM40.3125 64.5C40.3125 65.2128 40.0294 65.8963 39.5254 66.4004C39.0213 66.9044 38.3378 67.1875 37.625 67.1875C36.9122 67.1875 36.2287 66.9044 35.7246 66.4004C35.2206 65.8963 34.9375 65.2128 34.9375 64.5V30.9062C34.9375 30.1935 35.2206 29.5099 35.7246 29.0059C36.2287 28.5019 36.9122 28.2188 37.625 28.2188C38.3378 28.2188 39.0213 28.5019 39.5254 29.0059C40.0294 29.5099 40.3125 30.1935 40.3125 30.9062V64.5ZM14.7812 6.71875H33.5938V13.4375H36.2812V2.6875C36.2812 1.97473 35.9981 1.29115 35.4941 0.78715C34.9901 0.283146 34.3065 0 33.5938 0H14.7812C14.0685 0 13.3849 0.283146 12.8809 0.78715C12.3769 1.29115 12.0938 1.97473 12.0938 2.6875V13.4375H14.7812V6.71875Z" fill="#261F5E"/>
</svg>
