<svg width="114" height="114" viewBox="0 0 114 114" fill="none" xmlns="http://www.w3.org/2000/svg">
<circle cx="57" cy="57" r="57" fill="#26205E"/>
<path d="M83.0128 46.1862H75.5593V30.2637C75.5593 29.7029 75.1046 29.2481 74.5437 29.2481H38.4564C37.8955 29.2481 37.4408 29.7029 37.4408 30.2637V46.1862H29.9872C26.6858 46.1862 24 48.872 24 52.1734V69.2956C24 72.597 26.6858 75.2828 29.9872 75.2828H37.4408V82.7363C37.4408 83.2971 37.8955 83.7519 38.4564 83.7519H74.5437C75.1046 83.7519 75.5593 83.2971 75.5593 82.7363V75.2828H83.0128C86.3142 75.2828 89 72.597 89 69.2956V52.1734C89 48.872 86.3142 46.1862 83.0128 46.1862ZM39.472 31.2794H73.5281V46.1862H39.472V31.2794ZM73.5281 81.7206H39.472V66.8138H73.5281V81.7206ZM86.9688 69.2956C86.9688 71.477 85.1941 73.2516 83.0128 73.2516H75.5593V65.7982C75.5593 65.2373 75.1046 64.7826 74.5437 64.7826H38.4564C37.8955 64.7826 37.4408 65.2373 37.4408 65.7982V73.2516H29.9872C27.8059 73.2516 26.0312 71.477 26.0312 69.2956V52.1734C26.0312 49.992 27.8059 48.2175 29.9872 48.2175H83.0128C85.1942 48.2175 86.9688 49.9921 86.9688 52.1734V69.2956ZM43.2405 71.1873C43.2405 70.6265 43.6953 70.1717 44.2561 70.1717H68.744C69.3049 70.1717 69.7596 70.6265 69.7596 71.1873C69.7596 71.7482 69.3049 72.203 68.744 72.203H44.2561C43.6953 72.203 43.2405 71.7482 43.2405 71.1873ZM43.2405 77.3471C43.2405 76.7862 43.6953 76.3315 44.2561 76.3315H68.744C69.3049 76.3315 69.7596 76.7862 69.7596 77.3471C69.7596 77.908 69.3049 78.3627 68.744 78.3627H44.2561C43.6953 78.3627 43.2405 77.908 43.2405 77.3471Z" fill="#47FF5A"/>
</svg>
