<svg width="114" height="114" viewBox="0 0 114 114" fill="none" xmlns="http://www.w3.org/2000/svg">
<circle cx="57" cy="57" r="57" fill="#26205E"/>
<g clip-path="url(#clip0_2001_21852)">
<path d="M94.4499 41.164C93.739 39.5079 92.4197 38.2194 90.7239 37.5319C89.052 36.8756 87.1778 36.8944 85.5247 37.5963L73.3823 42.7474L33.1522 36.8472C32.8827 36.8044 32.6116 36.8625 32.3808 37.0021L25.5645 41.1121C25.1754 41.3469 24.9578 41.7849 25.0068 42.2366C25.0552 42.6878 25.3618 43.07 25.7912 43.2159L51.6007 51.9876L41.3304 56.3445L31.8259 53.3675C31.3285 53.2103 30.7892 53.4033 30.5026 53.8392L28.2765 57.2205C27.925 57.7543 28.0691 58.472 28.5989 58.8292L44.1273 69.301C44.3227 69.4332 44.5506 69.5004 44.7796 69.5004C44.9339 69.5004 45.089 69.4696 45.2353 69.4075L90.8614 50.0516C92.5372 49.3407 93.8332 48.0209 94.51 46.3364C95.1835 44.6599 95.1619 42.8227 94.4499 41.164ZM28.9187 41.8144L33.2274 39.2163L69.252 44.4994L54.8259 50.6193L28.9187 41.8144ZM92.345 45.4665C91.9012 46.571 91.0507 47.4368 89.9502 47.904L44.9067 67.0127L30.8599 57.5395L31.9678 55.8568L41.0422 58.6994C41.3054 58.7825 41.5914 58.7688 41.8465 58.66L86.4359 39.7438C87.528 39.2813 88.7761 39.2732 89.8583 39.6988C90.9697 40.1494 91.8384 40.9965 92.3055 42.0845C92.7717 43.169 92.7854 44.3705 92.345 45.4665Z" fill="#47FF5A"/>
<path d="M65.8321 78.8333H26.1666C25.5224 78.8333 25 79.3557 25 79.9999C25 80.6441 25.5224 81.1665 26.1666 81.1665H65.832C66.4763 81.1665 66.9986 80.6441 66.9986 79.9999C66.9986 79.3557 66.4763 78.8333 65.8321 78.8333Z" fill="#47FF5A"/>
</g>
<defs>
<clipPath id="clip0_2001_21852">
<rect width="70" height="70" fill="white" transform="translate(25 24)"/>
</clipPath>
</defs>
</svg>
