<svg width="25" height="24" viewBox="0 0 25 24" fill="none" xmlns="http://www.w3.org/2000/svg">
<path d="M11.666 10.0364L8.97787 7.69309C8.76052 7.5678 8.39123 7.5678 8.17359 7.69309C7.95642 7.81839 7.72078 8.05038 7.72078 8.30148V9.559L1.45312 10.6678L7.72078 11.7765V12.9878C7.72078 13.2389 7.95642 13.4709 8.17359 13.5962C8.39123 13.722 8.73614 13.722 8.95341 13.5962L11.6539 11.2533C11.8714 11.128 12.0112 10.8955 12.0112 10.6449C12.0112 10.3937 11.8835 10.1617 11.666 10.0364Z" fill="#261F5E"/>
<path d="M7.95317 6.50853L9.65417 7.18095V1.8845H18.8069L14.7553 4.08026C14.7553 4.08026 14.1986 4.32776 14.0749 4.51325C13.9512 4.69897 13.9512 4.9152 13.9512 5.7814V18.152H9.65413V14.1545L7.95312 14.827V19.0181C7.95312 19.0181 8.01505 19.8219 9.03561 19.8219H13.9512V22.8838C13.9512 22.8838 14.0131 24.1825 15.1264 23.7495L22.2088 19.8219C22.2088 19.8219 22.858 19.6365 22.858 18.7395V1.08045C22.858 1.08045 22.858 0.183733 21.7448 0.183733H9.25222C9.25222 0.183733 7.95317 -0.0638139 7.95317 1.11153V6.50853Z" fill="#261F5E"/>
</svg>
