<svg width="114" height="114" viewBox="0 0 114 114" fill="none" xmlns="http://www.w3.org/2000/svg">
<circle cx="57" cy="57" r="57" fill="#26205E"/>
<path fill-rule="evenodd" clip-rule="evenodd" d="M37.7285 44.5C37.7285 40.7606 40.7599 37.7292 44.4993 37.7292H67.416C68.2789 37.7292 68.9785 37.0296 68.9785 36.1667C68.9785 35.3037 68.2789 34.6042 67.416 34.6042H44.4993C39.034 34.6042 34.6035 39.0347 34.6035 44.5V69.5C34.6035 74.9654 39.034 79.3958 44.4993 79.3958H69.4994C74.9648 79.3958 79.3952 74.9654 79.3952 69.5V50.75C79.3952 49.8871 78.6956 49.1875 77.8327 49.1875C76.9698 49.1875 76.2702 49.8871 76.2702 50.75V69.5C76.2702 73.2394 73.2387 76.2708 69.4994 76.2708H44.4993C40.7599 76.2708 37.7285 73.2394 37.7285 69.5V44.5ZM76.9108 41.3786C77.4881 40.7372 77.436 39.7492 76.7948 39.172C76.1533 38.5947 75.1654 38.6467 74.5881 39.2881L58.4681 57.1992C57.5452 58.2246 55.9827 58.3525 54.9056 57.4906L47.5588 51.6132C46.885 51.0742 45.9017 51.1834 45.3626 51.8573C44.8236 52.5311 44.9328 53.5144 45.6067 54.0535L52.9533 59.9308C55.3233 61.8267 58.7606 61.5456 60.7908 59.2898L76.9108 41.3786Z" fill="#47FF5A"/>
</svg>
