<svg width="18" height="18" viewBox="0 0 18 18" fill="none" xmlns="http://www.w3.org/2000/svg">
<circle cx="9" cy="9" r="9" fill="#D9D9D9"/>
<path d="M11.7649 10.6306L10.1344 9.0008L11.764 7.37104C12.0774 7.05847 12.0774 6.54975 11.764 6.23718C11.4505 5.92186 10.9437 5.92277 10.6302 6.23626L8.99966 7.86602L7.3691 6.23443C7.05564 5.92094 6.54787 5.92277 6.23441 6.23443C5.92186 6.54791 5.92186 7.05664 6.23441 7.36921L7.86588 9.0008L6.23808 10.6278C5.92461 10.9413 5.92461 11.45 6.23808 11.7617C6.39481 11.9193 6.5992 11.9973 6.80451 11.9973C7.01073 11.9973 7.21512 11.9193 7.37185 11.7626L8.99966 10.1347L10.6311 11.7653C10.7879 11.9221 10.9922 12 11.1976 12C11.4029 12 11.6082 11.9212 11.7649 11.7653C12.0784 11.4519 12.0784 10.944 11.7649 10.6306" fill="black"/>
</svg>
