<svg width="33" height="33" viewBox="0 0 33 33" fill="none" xmlns="http://www.w3.org/2000/svg">
<circle cx="16.5" cy="16.5" r="16.5" fill="#423C7E"/>
<path d="M17.94 12.33L17.99 15.28L20.62 15.24C20.81 15.24 20.95 15.41 20.92 15.59L20.5699 17.5C20.5399 17.64 20.42 17.74 20.28 17.75L18.03 17.79L18.15 25.04L15.15 25.09L15.03 17.84L13.33 17.87C13.16 17.87 13.03 17.74 13.03 17.57L13 15.67C13 15.5 13.13 15.37 13.3 15.37L15 15.34L14.95 12.09C14.92 10.43 16.24 9.07 17.9 9.04L20.5999 9C20.7699 9 20.9 9.13 20.9 9.3L20.94 11.7C20.94 11.87 20.81 12 20.64 12L18.24 12.04C18.07 12.03 17.94 12.17 17.94 12.33Z" fill="white"/>
</svg>
