<svg width="14" height="14" viewBox="0 0 14 14" fill="none" xmlns="http://www.w3.org/2000/svg">
<path d="M9.24569 12.9792C9.56652 12.9792 9.82896 12.7167 9.82896 12.3959C9.82896 12.0751 9.56652 11.8126 9.24569 11.8126L8.57481 11.8126L8.95394 10.9668L9.97474 10.9668C10.2956 10.9668 10.558 10.7043 10.558 10.3835C10.558 10.0627 10.2956 9.80022 9.97474 9.80022H9.47894L10.0914 8.40016C12.5999 8.1667 14 7.64169 14 7C14 6.3583 12.6 5.8333 10.0917 5.62914L9.4792 4.22908H9.975C10.2958 4.22908 10.5583 3.96663 10.5583 3.64579C10.5583 3.32496 10.2958 3.06251 9.975 3.06251H8.9542L8.57507 2.21667H9.24595C9.56678 2.21667 9.82922 1.95423 9.82922 1.63339C9.82922 1.31256 9.56678 1.05011 9.24595 1.05011L8.05007 1.05011L7.61244 0L6.12493 0L7.17492 5.57085C5.13332 5.65834 3.09162 6.09586 1.72079 6.475L0.349945 4.72502H2.07408e-07L0.699968 7V7.02919L2.07408e-07 9.27498H0.350023L1.72087 7.525C3.09172 7.90415 5.10418 8.34165 7.175 8.42915L6.1249 14H7.61242L8.04994 12.9792L9.24569 12.9792Z" fill="#01FF47"/>
</svg>
