<svg width="36" height="36" viewBox="0 0 36 36" fill="none" xmlns="http://www.w3.org/2000/svg">
<circle cx="18" cy="18" r="18" fill="#261F5E"/>
<path d="M8.70876 17.3129H26.2914C26.5781 17.3129 26.8362 17.1354 26.9461 16.8632C27.0557 16.5914 26.9948 16.2779 26.7923 16.0695L22.0685 11.2134C21.7917 10.9289 21.3432 10.9289 21.0664 11.2134C20.7896 11.4977 20.7896 11.959 21.0664 12.2436L24.5807 15.8563H8.70868C8.31745 15.8563 8 16.1824 8 16.5848C8 16.9868 8.31742 17.3129 8.70868 17.3129L8.70876 17.3129ZM26.2914 19.6871H8.70876C8.42209 19.6871 8.16398 19.8646 8.05412 20.1368C7.94451 20.4086 8.00535 20.7221 8.20789 20.9305L12.9317 25.7866C13.0699 25.9286 13.2513 26 13.4328 26C13.6142 26 13.7952 25.9289 13.9338 25.7866C14.2106 25.5023 14.2106 25.041 13.9338 24.7564L10.4193 21.1439H26.2913C26.6825 21.1439 27 20.8178 27 20.4154C27 20.0132 26.6826 19.6871 26.2913 19.6871L26.2914 19.6871Z" fill="#47FF5A"/>
</svg>
