<svg width="33" height="33" viewBox="0 0 33 33" fill="none" xmlns="http://www.w3.org/2000/svg">
<circle cx="16.5" cy="16.5" r="16.5" fill="#423C7E"/>
<g clip-path="url(#clip0_1315_13762)">
<path d="M24.5571 10.74C23.9232 11.116 23.2202 11.389 22.4723 11.537C21.8734 10.898 21.0205 10.5 20.0766 10.5C18.2639 10.5 16.794 11.97 16.794 13.782C16.794 14.039 16.823 14.29 16.879 14.53C14.1514 14.393 11.7327 13.086 10.1139 11.1C9.83092 11.584 9.66994 12.148 9.66994 12.75C9.66994 13.889 10.2499 14.894 11.1298 15.482C10.5918 15.464 10.0859 15.316 9.64294 15.07C9.64294 15.084 9.64294 15.097 9.64294 15.111C9.64294 16.701 10.7748 18.028 12.2756 18.33C12.0006 18.405 11.7107 18.445 11.4107 18.445C11.1987 18.445 10.9938 18.424 10.7928 18.386C11.2107 19.69 12.4226 20.639 13.8584 20.666C12.7356 21.546 11.3197 22.071 9.78193 22.071C9.51696 22.071 9.25599 22.055 8.99902 22.025C10.4518 22.956 12.1766 23.5 14.0304 23.5C20.0676 23.5 23.3692 18.498 23.3692 14.16C23.3692 14.018 23.3662 13.876 23.3592 13.735C24.0021 13.274 24.5591 12.696 24.999 12.038C24.4101 12.299 23.7782 12.476 23.1143 12.555C23.7922 12.149 24.3121 11.505 24.5571 10.74Z" fill="white"/>
</g>
<defs>
<clipPath id="clip0_1315_13762">
<rect width="16" height="16" fill="white" transform="translate(9 9)"/>
</clipPath>
</defs>
</svg>
