<svg width="40" height="21" viewBox="0 0 40 21" fill="none" xmlns="http://www.w3.org/2000/svg">
<path d="M0 19.3047H40V20.0867H0V19.3047Z" fill="#261F5E"/>
<path d="M19.5905 14.8958L17.6143 15.3972L20.4016 10.8202L25.2815 9.58203L19.5905 14.8958Z" fill="#261F5E"/>
<path d="M33.7266 6.62749L12.0825 12.1233L9.66101 13.2532L7.89974 13.7002L9.07985 11.174L3.81445 6.70587L5.55762 6.26344L11.0135 8.92235L18.9925 6.89686L10.6725 0.762364L13.6732 0L26.1289 5.08415L32.8104 3.3879C33.1032 3.31329 33.3986 3.27555 33.6892 3.27555C34.6985 3.27555 35.5032 3.72495 35.6908 4.39264C35.9428 5.28595 35.0619 6.28866 33.7263 6.62741L33.7266 6.62749Z" fill="#261F5E"/>
</svg>
