<svg width="41" height="24" viewBox="0 0 41 24" fill="none" xmlns="http://www.w3.org/2000/svg">
<path d="M0 23.168H40.2847V23.9995H0V23.168Z" fill="#261F5E"/>
<path d="M15.9568 17.4917L13.9673 16.9576L18.8287 14.1523L23.7435 15.472L15.9568 17.4917Z" fill="#261F5E"/>
<path d="M35.5786 15.9436C35.3879 16.6526 34.5786 17.129 33.5638 17.129C33.2707 17.129 32.972 17.0883 32.6773 17.009L10.8826 11.1603L8.17112 10.9798L6.39795 10.5043L8.76849 8.77438L6.55197 2.01242L8.30666 2.48294L11.6519 7.67662L19.6864 9.83303L15.6908 0L18.7127 0.810875L26.8728 11.7624L33.6008 13.5676C34.9467 13.9292 35.834 14.9952 35.5789 15.9437L35.5786 15.9436Z" fill="#261F5E"/>
</svg>
