<svg
  width="520"
  height="1905"
  viewBox="0 0 520 1905"
  fill="none"
  xmlns="http://www.w3.org/2000/svg"
>
<path
    d="M481.57 1903.71C499.81 1858.29 518.7 1800.29 518.7 1754.9V1714.66H515.48V945.56C513.78 944.18 512.88 942.62 512.88 941V411.14C512.88 390.59 508.75 370.15 500.27 350.2C483.57 310.81 453.27 240.87 427.95 190.43C408.77 152.24 382.8 104.8 353.2 66.92C338.4 47.98 322.71 31.46 306.53 19.69C290.32 7.88 273.84 1 257.48 1C241.12 1 224.84 7.82 208.86 19.55C192.93 31.26 177.51 47.69 162.92 66.58C133.68 104.35 107.73 151.79 87.03 190.44C59.79 241.36 29.64 312.47 13.62 351.62C5.85 370.62 2.11 390.07 2.11 409.6V940.99C2.11 942.03 1.72 943.04 1 944V1799.12C7.75 1834.42 20.75 1872.11 33.44 1903.71H481.57Z"
    fill="url(#paint0_linear_1426_14170)"
    stroke="#BCBAF7"
  />
<path
    d="M17.56 388.24C17.56 388.24 17.56 386.11 71.3 277.55C84.26 251.4 188.38 252 257.55 252C326.72 252 430.87 251.38 443.8 277.55C497.54 386.12 497.54 388.24 497.54 388.24V1794.93L465.83 1846.24C449.78 1872.18 257.55 1872 257.55 1872C257.55 1872 65.32 1872.18 49.27 1846.24L17.54 1794.93V388.24H17.57H17.56Z"
    fill="white"
    stroke="white"
  />
<defs>
<linearGradient
      id="paint0_linear_1426_14170"
      x1="-1885.54"
      y1="952.35"
      x2="2399.41"
      y2="952.35"
      gradientUnits="userSpaceOnUse"
    >
<stop stop-color="#99BBFF" />
<stop offset="0.49" stop-color="#CCCCFF" />
<stop offset="1" stop-color="#99BBFF" />
</linearGradient>
</defs>
</svg>
