<svg width="37" height="37" viewBox="0 0 37 37" fill="none" xmlns="http://www.w3.org/2000/svg">
<path d="M24.1708 33.9313C25.0096 33.9313 25.6957 33.2452 25.6957 32.4064C25.6957 31.5677 25.0096 30.8816 24.1708 30.8816H22.417L23.4081 28.6703L26.0768 28.6703C26.9155 28.6703 27.6017 27.9842 27.6017 27.1454C27.6017 26.3067 26.9155 25.6206 26.0768 25.6206H24.7806L26.3819 21.9604C32.9396 21.3501 36.6 19.9776 36.6 18.3C36.6 16.6224 32.9399 15.2499 26.3826 14.7162L24.7813 11.056H26.0775C26.9162 11.056 27.6023 10.3699 27.6023 9.53115C27.6023 8.6924 26.9162 8.00628 26.0775 8.00628H23.4088L22.4177 5.79502H24.1715C25.0103 5.79502 25.6964 5.1089 25.6964 4.27015C25.6964 3.4314 25.0103 2.74528 24.1715 2.74528L21.0452 2.74528L19.9011 0L16.0123 0L18.7573 14.5638C13.4199 14.7925 8.08235 15.9363 4.49863 16.9275L0.914833 12.3525H-2.28882e-05L1.8299 18.3V18.3763L-2.28882e-05 24.2475L0.915039 24.2475L4.49883 19.6725C8.08262 20.6637 13.3438 21.8074 18.7575 22.0362L16.0122 36.6H19.901L21.0448 33.9313L24.1708 33.9313Z" fill="#26205E"/>
</svg>
