<svg width="18" height="18" viewBox="0 0 18 18" fill="none" xmlns="http://www.w3.org/2000/svg">
<path d="M11.8873 16.6875C12.2998 16.6875 12.6372 16.3501 12.6372 15.9376C12.6372 15.5251 12.2998 15.1877 11.8873 15.1877H11.0248L11.5122 14.1002L12.8247 14.1002C13.2372 14.1002 13.5746 13.7627 13.5746 13.3502C13.5746 12.9377 13.2372 12.6003 12.8247 12.6003H12.1872L12.9747 10.8002C16.1998 10.5 18 9.82504 18 9C18 8.17496 16.1999 7.49996 12.975 7.23746L12.1875 5.43739H12.825C13.2375 5.43739 13.5749 5.09995 13.5749 4.68745C13.5749 4.27495 13.2375 3.93751 12.825 3.93751H11.5125L11.0251 2.85001H11.8876C12.3001 2.85001 12.6376 2.51258 12.6376 2.10007C12.6376 1.68757 12.3001 1.35014 11.8876 1.35014L10.3501 1.35014L9.78743 0L7.87491 0L9.2249 7.16253C6.59998 7.27501 3.97494 7.83753 2.21245 8.325L0.44993 6.07502H0L0.89996 9V9.03754L0 11.925H0.450029L2.21255 9.675C3.97507 10.1625 6.56252 10.725 9.225 10.8375L7.87488 18H9.78739L10.3499 16.6875L11.8873 16.6875Z" fill="#9E9BBF"/>
</svg>


