<svg
  width="33"
  height="33"
  viewBox="0 0 33 33"
  fill="none"
  xmlns="http://www.w3.org/2000/svg"
>
<g clip-path="url(#clip0_2757_9309)">
<path
      d="M27.9252 16.6531L27.9265 16.6286C27.9557 15.404 25.6545 15.0977 25.6545 15.0977L21.6159 14.4152L19.7852 11.5019C20.6384 11.3881 21.2583 11.0248 21.2809 10.5645C21.3101 9.96838 20.3265 9.43577 19.0841 9.3749C18.8668 9.36425 18.6563 9.36906 18.4561 9.38689L17.0505 7.14997L14.7929 6.85787L17.1358 14.2678L10.0406 14.588L8.538 12.1433L7.52984 12.0932L7.18304 19.1729L8.19118 19.2215L9.92557 16.9354L16.9555 17.9477L13.8995 25.0931L16.1748 25.0231L17.7924 22.9343C17.9899 22.9717 18.1989 22.997 18.4163 23.0077C19.6587 23.0686 20.6896 22.6347 20.7188 22.0386C20.7413 21.5782 20.1598 21.156 19.3218 20.9594L21.4285 18.239L25.5145 17.9546C25.5145 17.9546 27.8347 17.8747 27.9252 16.6531Z"
      fill="#9E9BBF"
    />
</g>
<defs>
<clipPath id="clip0_2757_9309">
<rect
        width="22.7387"
        height="22.7387"
        fill="white"
        transform="translate(16.8463) rotate(47.8051)"
      />
</clipPath>
</defs>
</svg>
