<svg
  xmlns="http://www.w3.org/2000/svg"
  width="9.326"
  height="15.065"
  viewBox="0 0 9.326 15.065"
>
  <path
    id="Path"
    d="M14.708,1.064,13.982.351A1.25,1.25,0,0,0,13.1,0a1.2,1.2,0,0,0-.87.351l-4.7,4.616L2.833.351A1.2,1.2,0,0,0,1.963,0a1.25,1.25,0,0,0-.88.351l-.716.712A1.168,1.168,0,0,0,0,1.928a1.119,1.119,0,0,0,.367.855L6.662,8.965a1.16,1.16,0,0,0,.87.361,1.211,1.211,0,0,0,.88-.361l6.3-6.183a1.153,1.153,0,0,0,.358-.855A1.205,1.205,0,0,0,14.708,1.064Z"
    transform="translate(0 15.065) rotate(-90)"
    fill="#616161"
  />
</svg>
