<svg
  width="134"
  height="134"
  viewBox="0 0 134 134"
  fill="none"
  xmlns="http://www.w3.org/2000/svg"
>
<path
    d="M88.2729 40.3466H45.7279C45.0369 40.3466 44.3669 39.9906 43.99 39.4253C43.5922 38.8391 43.5294 38.1062 43.8016 37.4572L49.4129 23.8059C49.7269 23.0103 50.5016 22.5078 51.3391 22.5078H82.6616C83.52 22.5078 84.2738 23.0103 84.5879 23.8059L90.1991 37.4572C90.4713 38.1062 90.3875 38.8391 90.0107 39.4253C89.6338 40.0116 88.9847 40.3466 88.2729 40.3466ZM48.8475 36.1591H85.1532L81.2588 26.6953H52.7419L48.8475 36.1591Z"
    fill="#26205E"
  />
<path
    d="M21.4814 69.9941V103.117C21.4814 107.744 25.2293 111.492 29.8564 111.492H104.143C108.77 111.492 112.518 107.744 112.518 103.117V69.9941H21.4814Z"
    fill="#9E9BBF"
  />
<path
    d="M108.875 34.0654H25.125C20.4978 34.0654 16.75 37.8132 16.75 42.4404V63.7129C16.75 68.3401 20.4978 72.0879 25.125 72.0879H108.875C113.502 72.0879 117.25 68.3401 117.25 63.7129V42.4404C117.25 37.8132 113.502 34.0654 108.875 34.0654Z"
    fill="#26205E"
  />
<path
    d="M74.4325 78.0759V66.0996C74.4325 64.948 73.4903 64.0059 72.3387 64.0059H61.6396C60.4881 64.0059 59.5459 64.948 59.5459 66.0996V78.0759C59.5459 79.2274 60.4881 80.1696 61.6396 80.1696H72.3387C73.5112 80.1696 74.4325 79.2274 74.4325 78.0759Z"
    fill="#3F35A0"
  />
<path d="M70.1406 72.0879H63.8594V80.1698H70.1406V72.0879Z" fill="#05607C" />
<path
    d="M67 75.2285C68.7345 75.2285 70.1406 73.8224 70.1406 72.0879C70.1406 70.3534 68.7345 68.9473 67 68.9473C65.2655 68.9473 63.8594 70.3534 63.8594 72.0879C63.8594 73.8224 65.2655 75.2285 67 75.2285Z"
    fill="#47FF5A"
  />
</svg>
