<svg width="24" height="24" viewBox="0 0 24 24" fill="none" xmlns="http://www.w3.org/2000/svg">
<g clip-path="url(#clip0_2520_58280)">
<path d="M17 5.335C17 4.595 16.405 4 15.665 4H14V2H10V4H8.335C7.595 4 7 4.595 7 5.335V11H17V5.335Z" fill="black" fill-opacity="0.3"/>
<path d="M7 11V20.665C7 20.8403 7.03453 21.0139 7.10162 21.1759C7.16871 21.3379 7.26705 21.485 7.39101 21.609C7.51498 21.733 7.66215 21.8313 7.82412 21.8984C7.98609 21.9655 8.15969 22 8.335 22H15.67C16.0241 22 16.3636 21.8593 16.614 21.609C16.8643 21.3586 17.005 21.0191 17.005 20.665V11H7Z" fill="black"/>
</g>
<defs>
<clipPath id="clip0_2520_58280">
<rect width="24" height="24" fill="white"/>
</clipPath>
</defs>
</svg>
