<svg xmlns="http://www.w3.org/2000/svg" width="56.132" height="55.911" viewBox="0 0 56.132 55.911">
  <g id="noun-bell-4498349" transform="translate(-110.84 -41.448)">
    <path id="Path_498" data-name="Path 498" d="M333.878,430.224A6.754,6.754,0,0,0,342,425.2l-13.143-3.1h0a6.755,6.755,0,0,0,5.018,8.125Z" transform="translate(-192.275 -335.98)" fill="#f60"/>
    <path id="Path_499" data-name="Path 499" d="M253.239,84.37a9.01,9.01,0,0,1-6.67-11.749c.035-.143.023-.272.047-.413l1.6-6.776a13.281,13.281,0,0,0-7.041-14.95l1.192-5.055h0a3.171,3.171,0,1,0-6.17-1.455l-1.213,5.145h0A13.276,13.276,0,0,0,222.356,59.33l-1.9,8.053a8.918,8.918,0,0,1-10.912,6.677l-.97,4.11,8.844,2.087,25.86,6.1,8.992,2.112Z" transform="translate(-86.267)" fill="#f60"/>
    <path id="Path_500" data-name="Path 500" d="M150.87,443.552l6.07-6.344,3.264,3.124-6.07,6.344Z" transform="translate(-35.332 -349.316)" fill="#f60"/>
    <path id="Path_501" data-name="Path 501" d="M150.53,204.461l3.093-3.293,6.4,6.012-3.093,3.293Z" transform="translate(-35.032 -140.976)" fill="#f60"/>
    <path id="Path_502" data-name="Path 502" d="M110.84,335.94h7.374V340.6H110.84Z" transform="translate(0 -259.932)" fill="#f60"/>
  </g>
</svg>
