<svg width="24" height="24" viewBox="0 0 24 24" fill="none" xmlns="http://www.w3.org/2000/svg">
<g clip-path="url(#clip0_2433_48201)">
<path d="M22.2656 19.3304V19.3177H1.72993V19.3304C0.764857 19.3979 0 20.1935 0 21.1758C0 21.6688 0.195848 22.1416 0.54446 22.4902C0.893071 22.8389 1.36589 23.0347 1.8589 23.0347C2.35191 23.0347 2.82473 22.8389 3.17334 22.4902C3.52196 22.1416 3.7178 21.6688 3.7178 21.1758C3.7178 21.1316 3.70805 21.0903 3.70506 21.0468H5.0833C5.0803 21.0903 5.07055 21.1316 5.07055 21.1758C5.07055 21.6688 5.2664 22.1416 5.61501 22.4902C5.96362 22.8389 6.43644 23.0347 6.92945 23.0347C7.42246 23.0347 7.89528 22.8389 8.24389 22.4902C8.5925 22.1416 8.78835 21.6688 8.78835 21.1758C8.78835 21.1316 8.7786 21.0903 8.7756 21.0468H10.1538C10.1508 21.0903 10.1411 21.1316 10.1411 21.1758C10.1411 21.6688 10.3369 22.1416 10.6856 22.4902C11.0342 22.8389 11.507 23.0347 12 23.0347C12.493 23.0347 12.9658 22.8389 13.3144 22.4902C13.6631 22.1416 13.8589 21.6688 13.8589 21.1758C13.8589 21.1316 13.8492 21.0903 13.8462 21.0468H15.2244C15.2214 21.0903 15.2116 21.1316 15.2116 21.1758C15.2116 21.6688 15.4075 22.1416 15.7561 22.4902C16.1047 22.8389 16.5775 23.0347 17.0705 23.0347C17.5636 23.0347 18.0364 22.8389 18.385 22.4902C18.7336 22.1416 18.9295 21.6688 18.9295 21.1758C18.9295 21.1316 18.9197 21.0903 18.9167 21.0468H20.2949C20.2919 21.0903 20.2822 21.1316 20.2822 21.1758C20.2822 21.6688 20.478 22.1416 20.8267 22.4902C21.1753 22.8389 21.6481 23.0347 22.1411 23.0347C22.6341 23.0347 23.1069 22.8389 23.4555 22.4902C23.8042 22.1416 24 21.6688 24 21.1758C23.9955 20.1935 23.2306 19.3979 22.2656 19.3304ZM7.12366 17.7497H16.8718V4.36546H15.8085L15.8145 3.54886C15.8198 2.86124 15.5558 2.21336 15.0707 1.7237C14.5855 1.23404 13.9391 0.964844 13.2515 0.964844H10.8145C9.39649 0.964844 8.23346 2.07464 8.22071 3.44013L8.21246 4.36546H7.12366V17.7497ZM9.72043 3.45288C9.72568 2.91748 10.2266 2.46456 10.8145 2.46456H13.2515C13.5365 2.46456 13.8042 2.57629 14.0059 2.7795C14.2076 2.98272 14.3171 3.25191 14.3148 3.53686L14.3088 4.36546H9.71293L9.72043 3.45288ZM5.29626 4.36546H4.07774C3.83769 4.36536 3.59998 4.41255 3.37819 4.50434C3.15639 4.59614 2.95485 4.73073 2.78508 4.90043C2.61531 5.07013 2.48064 5.27161 2.38875 5.49337C2.29687 5.71513 2.24958 5.95282 2.24958 6.19286V17.7497H5.29626V4.36546ZM19.9185 4.36546H18.7V17.7497H21.7459V6.19286C21.7459 5.70821 21.5534 5.2434 21.2107 4.90069C20.868 4.55799 20.4032 4.36546 19.9185 4.36546Z" fill="#261F5E"/>
</g>
<defs>
<clipPath id="clip0_2433_48201">
<rect width="24" height="24" fill="white"/>
</clipPath>
</defs>
</svg>
