<svg xmlns="http://www.w3.org/2000/svg" width="47.11" height="38.964" viewBox="0 0 47.11 38.964">
  <g id="Group_14161" data-name="Group 14161" transform="translate(3506.806 732.404)">
    <g id="Group_14154" data-name="Group 14154" transform="translate(-3506.806 -732.404)">
      <path id="Path_326" data-name="Path 326" d="M316.17,235.67h5.79v5.79h-5.79Z" transform="translate(-295.461 -219.868)" fill="#ff6923"/>
      <path id="Path_327" data-name="Path 327" d="M98.364,290.433H88.648V287H70v15.9a2.892,2.892,0,0,0,2.944,2.944h41.221a2.892,2.892,0,0,0,2.944-2.944V287H98.364Z" transform="translate(-70 -266.878)" fill="#ff6923"/>
      <path id="Path_328" data-name="Path 328" d="M114.166,55h-10.7V49.3A1.51,1.51,0,0,0,102,47.832H85.115A1.51,1.51,0,0,0,83.643,49.3V55h-10.7A2.892,2.892,0,0,0,70,57.941v7.067H88.746V61.671h9.716v3.337H117.11V57.941A2.953,2.953,0,0,0,114.166,55ZM86.587,55v-4.22h14.035V55Z" transform="translate(-70 -47.832)" fill="#ff6923"/>
    </g>
  </g>
</svg>
