<svg width="1348" height="1745" viewBox="0 0 1348 1745" fill="none" xmlns="http://www.w3.org/2000/svg">
<g clip-path="url(#clip0_1346_13875)">
<path d="M2.34999 1119.18C0.559985 1127.22 -0.0600148 1136.18 1.06999 1146.06C1.15999 1146.81 1.62998 1147.47 2.34999 1147.96V1119.19V1119.18Z" fill="url(#paint0_linear_1346_13875)" stroke="#BCBAF7"/>
<path d="M1343.83 1713.8L1014.9 1548.46L1014.5 1548.26L1014.65 1547.85L1028.25 1508.88C1029.15 1506.29 1029.99 1503.74 1030.75 1501.11C1036.39 1481.73 1060.74 1394.61 1060.74 1335.56V1304.93H1059.32V719.49C1058.57 718.44 1058.17 717.25 1058.17 716.02V312.69C1058.17 297.05 1056.35 281.49 1052.61 266.3C1045.24 236.32 1031.87 183.08 1020.7 144.68C1012.24 115.61 1000.78 79.5 987.72 50.66C981.19 36.24 974.27 23.67 967.13 14.71C959.98 5.72999 952.71 0.48999 945.49 0.48999C938.27 0.48999 931.09 5.67999 924.04 14.61C917.01 23.52 910.21 36.03 903.77 50.41C890.87 79.16 879.42 115.27 870.29 144.69C858.27 183.45 844.97 237.58 837.9 267.38C834.47 281.84 832.82 296.65 832.82 311.51V716.01C832.82 716.8 832.65 717.57 832.33 718.3V1369.22C838.34 1423.47 855.61 1485.16 860.24 1501.09C861.01 1503.72 861.84 1506.27 862.75 1508.86L876.35 1547.83L876.49 1548.24L876.1 1548.44L545.85 1713.78C544.69 1715.12 543.18 1718.25 542.55 1723.33C541.93 1728.41 542.2 1735.39 544.56 1744.4L917.77 1667.85L918.2 1667.76L918.35 1668.17L921.49 1677.16L921.51 1677.22C921.53 1677.27 921.55 1677.34 921.59 1677.42C921.66 1677.6 921.76 1677.86 921.89 1678.18C922.16 1678.84 922.55 1679.78 923.08 1680.91C924.13 1683.17 925.7 1686.18 927.76 1689.19C931.89 1695.24 937.88 1701.12 945.51 1701.12C953.14 1701.12 959.13 1695.24 963.26 1689.19C965.31 1686.18 966.88 1683.17 967.94 1680.91C968.47 1679.78 968.86 1678.84 969.13 1678.18C969.26 1677.86 969.36 1677.6 969.43 1677.42C969.46 1677.34 969.49 1677.27 969.51 1677.22L969.53 1677.17L972.67 1668.17L972.82 1667.76L973.25 1667.85L1345.15 1744.39C1347.51 1735.39 1347.78 1728.41 1347.16 1723.33C1346.54 1718.25 1345.02 1715.12 1343.86 1713.78L1343.83 1713.8Z" fill="url(#paint1_linear_1346_13875)" stroke="#BCBAF7"/>
<path d="M880.38 169.08L888.91 154.9C892.53 148.89 899.03 145.21 906.05 145.21H938.38C940.59 145.21 942.38 147 942.38 149.21V167.1C942.38 169.31 940.59 171.09 938.38 171.14C927.66 171.38 921.08 172.54 909.66 173.44C903.27 173.94 899.8 174.26 893.3 174.79C890.4 175.02 886.73 175.04 883.61 175C880.59 174.96 878.82 171.67 880.38 169.08V169.08Z" fill="black"/>
<path d="M1011.05 169.08L1002.52 154.9C998.9 148.89 992.4 145.21 985.38 145.21H953.05C950.84 145.21 949.05 147 949.05 149.21V167.1C949.05 169.31 950.84 171.09 953.05 171.14C963.77 171.38 970.35 172.54 981.77 173.44C988.16 173.94 991.63 174.26 998.13 174.79C1001.03 175.02 1004.69 175.04 1007.82 175C1010.84 174.96 1012.6 171.67 1011.04 169.08H1011.05Z" fill="black"/>
<path d="M848.45 291.11C848.45 291.11 848.45 289.43 870.18 203.71C875.42 183.06 917.52 183.54 945.49 183.54C973.46 183.54 1015.57 183.05 1020.8 203.71C1042.53 289.43 1042.53 291.11 1042.53 291.11V1401.78L1029.71 1442.29C1023.22 1462.77 945.49 1462.63 945.49 1462.63C945.49 1462.63 867.76 1462.77 861.27 1442.29L848.44 1401.78V291.11H848.45Z" fill="white" stroke="white"/>
</g>
<defs>
<linearGradient id="paint0_linear_1346_13875" x1="0.499985" y1="1133.57" x2="1890.5" y2="1133.57" gradientUnits="userSpaceOnUse">
<stop stop-color="#99BBFF"/>
<stop offset="0.49" stop-color="#CCCCFF"/>
<stop offset="1" stop-color="#99BBFF"/>
</linearGradient>
<linearGradient id="paint1_linear_1346_13875" x1="0.000198062" y1="872.46" x2="1890.5" y2="872.46" gradientUnits="userSpaceOnUse">
<stop stop-color="#99BBFF"/>
<stop offset="0.49" stop-color="#CCCCFF"/>
<stop offset="1" stop-color="#99BBFF"/>
</linearGradient>
<clipPath id="clip0_1346_13875">
<rect width="1347.91" height="1745" fill="white"/>
</clipPath>
</defs>
</svg>
