<svg xmlns="http://www.w3.org/2000/svg" width="49" height="49" viewBox="0 0 49 49">
  <g id="Group_14532" data-name="Group 14532" transform="translate(-709 -5009)">
    <circle id="Ellipse_29" data-name="Ellipse 29" cx="24.5" cy="24.5" r="24.5" transform="translate(709 5009)" fill="#fff2ed"/>
    <g id="Iconly_Bold_Call" data-name="Iconly/Bold/Call" transform="matrix(-0.309, -0.951, 0.951, -0.309, 725.795, 5048.621)">
      <g id="Call" transform="translate(2 2.001)">
        <path id="Call-2" data-name="Call" d="M16.167,12.379a2.279,2.279,0,0,0-1.674.44c-.482.281-1.4,1.024-1.923.834a11.932,11.932,0,0,1-6.313-6.16c-.193-.536.547-1.458.825-1.946a2.335,2.335,0,0,0,.436-1.685A13.7,13.7,0,0,0,5.189.615,1.912,1.912,0,0,0,4.021,0C2.52-.063.844,1.94.549,2.419-.187,3.441-.183,4.8.562,6.45c1.8,4.428,8.586,11.112,13.031,12.974A5.371,5.371,0,0,0,15.837,20a2.919,2.919,0,0,0,1.751-.549c.381-.219,2.466-1.979,2.411-3.521a1.941,1.941,0,0,0-.608-1.166,13.8,13.8,0,0,0-3.224-2.385" fill="#ff6923"/>
      </g>
    </g>
  </g>
</svg>
