<svg width="23" height="23" viewBox="0 0 23 23" fill="none" xmlns="http://www.w3.org/2000/svg">
<circle cx="11.5" cy="11.5" r="11.5" fill="#FF0505" fill-opacity="0.13"/>
<path d="M15.6865 14.1741L13.5125 12.0011L15.6853 9.82806C16.1033 9.4113 16.1033 8.733 15.6853 8.31624C15.2674 7.89581 14.5916 7.89703 14.1736 8.31501L11.9995 10.488L9.82547 8.31257C9.40752 7.89459 8.73049 7.89703 8.31255 8.31257C7.89582 8.73055 7.89582 9.40885 8.31255 9.82561L10.4878 12.0011L8.31743 14.1704C7.89948 14.5884 7.89948 15.2667 8.31743 15.6822C8.52641 15.8924 8.79893 15.9963 9.07268 15.9963C9.34764 15.9963 9.62016 15.8924 9.82914 15.6835L11.9995 13.5129L14.1748 15.6871C14.3838 15.8961 14.6563 16 14.9301 16C15.2038 16 15.4776 15.8949 15.6865 15.6871C16.1045 15.2691 16.1045 14.5921 15.6865 14.1741Z" fill="#E72D2D"/>
</svg>
