<svg width="24" height="24" viewBox="0 0 24 24" fill="none" xmlns="http://www.w3.org/2000/svg">
<g clip-path="url(#clip0_2520_58292)">
<path d="M6.35018 2.8237C6.35018 2.40017 6.06783 2.11782 5.6443 2.11782H4.93842V1.41194C4.93842 0.988408 4.65607 0.706055 4.23254 0.706055H3.52665C3.10313 0.706055 2.82077 0.988408 2.82077 1.41194V2.11782H2.11489C1.69136 2.11782 1.40901 2.40017 1.40901 2.8237V3.52958H6.35018V2.8237ZM22.5855 2.8237C22.5855 2.40017 22.3031 2.11782 21.8796 2.11782H21.1737V1.41194C21.1737 0.988408 20.8914 0.706055 20.4678 0.706055H19.7619C19.3384 0.706055 19.0561 0.988408 19.0561 1.41194V2.11782H18.3502C17.9267 2.11782 17.6443 2.40017 17.6443 2.8237V3.52958H22.5855V2.8237ZM0.703125 21.8825C0.703125 22.659 1.33842 23.2943 2.11489 23.2943H21.8796C22.6561 23.2943 23.2914 22.659 23.2914 21.8825V9.17664H0.703125V21.8825ZM17.6443 12.0002H19.0561V10.5884H20.4678V12.0002H21.8796V13.4119H20.4678V14.8237H19.0561V13.4119H17.6443V12.0002ZM2.11489 12.0002H6.35018V13.4119H2.11489V12.0002Z" fill="black"/>
<path d="M21.8796 4.94072H16.2325V2.82307C16.2325 2.39954 15.9502 2.11719 15.5267 2.11719H8.46783C8.0443 2.11719 7.76195 2.39954 7.76195 2.82307V4.94072H2.11489C1.33842 4.94072 0.703125 5.57601 0.703125 6.35248V7.76425H23.2914V6.35248C23.2914 5.57601 22.6561 4.94072 21.8796 4.94072Z" fill="black"/>
</g>
<defs>
<clipPath id="clip0_2520_58292">
<rect width="24" height="24" fill="white"/>
</clipPath>
</defs>
</svg>
