<svg
  xmlns="http://www.w3.org/2000/svg"
  width="44.949"
  height="56.949"
  viewBox="0 0 44.949 56.949"
>
  <g
    id="_39939f2935bbe38d968fab0e8edfe238"
    data-name="39939f2935bbe38d968fab0e8edfe238"
    transform="translate(-113.268 -10)"
  >
    <path
      id="Path_515"
      data-name="Path 515"
      d="M142.936,66.949l12.238-16.707h-6.119l8.24-16.707s2.824-4-1.412-5.881S114.932,10,114.932,10s-1.308,0-1.633,3.574c0,1.168-1.894,12.192,23.988,17.137-13.18-.7-20.473-2.824-20.473-2.824s-1.645,5.172,7.531,10.588c4.939,0,13.4.3,13.226.674-.3.622-12.047,1.447-12.047,1.447s-5.178,1.174,6.822,8.705c2.115,1.645,9.176-2.824,9.176-2.824s-2.115,6.352-1.645,8,5.41.941,5.41.941Z"
      fill="#ff6923"
    />
  </g>
</svg>
