<svg width="24" height="24" viewBox="0 0 24 24" fill="none" xmlns="http://www.w3.org/2000/svg">
<path d="M0.25 15.5H7.85V18.75H0.25V15.5ZM8.4 15.5H23.75V18.75H8.4V15.5ZM21.65 5.25C21.65 5.25 21.65 5.4 21.7 5.65C21.75 5.9 21.8 6.3 21.9 6.7C21.95 6.9 22.05 7.15 22.1 7.35L22.25 7.65C22.3 7.75 22.4 7.85 22.45 7.95C22.6 8.15 22.7 8.4 22.85 8.65C22.95 8.9 23.1 9.15 23.2 9.45C23.4 10 23.55 10.6 23.65 11.2C23.7 11.5 23.75 11.8 23.75 12.05C23.75 12.3 23.8 12.6 23.8 12.8V14.4H23.35V14C23.35 13.75 23.4 13.35 23.4 12.9V12.15C23.4 11.9 23.35 11.65 23.35 11.35C23.3 10.8 23.2 10.2 23 9.65C22.9 9.4 22.8 9.1 22.7 8.85C22.6 8.6 22.45 8.35 22.35 8.15C22.3 8.05 22.25 7.9 22.15 7.8C22.1 7.7 22.05 7.55 22 7.45C21.9 7.2 21.85 6.95 21.8 6.75C21.7 6.3 21.65 5.9 21.65 5.65V5.25ZM20.95 7.45V7.75C20.95 7.95 21 8.25 21.05 8.55C21.1 8.7 21.15 8.9 21.2 9.05C21.25 9.15 21.25 9.2 21.3 9.3C21.35 9.4 21.4 9.45 21.4 9.55C21.5 9.7 21.55 9.9 21.65 10.1C21.75 10.3 21.8 10.5 21.85 10.7C22 11.1 22.05 11.6 22.1 12C22.15 12.2 22.15 12.45 22.15 12.65C22.15 12.85 22.15 13.05 22.2 13.25V14.4H21.95V12.7C21.95 12.5 21.95 12.3 21.9 12.1C21.85 11.7 21.8 11.25 21.7 10.8C21.65 10.6 21.6 10.4 21.5 10.2C21.45 10 21.35 9.85 21.3 9.65C21.25 9.55 21.25 9.5 21.2 9.4C21.15 9.3 21.15 9.25 21.1 9.15C21.05 8.95 21 8.8 21 8.6V7.8C20.95 7.6 20.95 7.45 20.95 7.45Z" fill="#010101"/>
</svg>
