<svg width="17" height="17" viewBox="0 0 17 17" fill="none" xmlns="http://www.w3.org/2000/svg">
<path fill-rule="evenodd" clip-rule="evenodd" d="M1.41675 8.49935C1.41675 4.59006 4.59008 1.41602 8.50008 1.41602C12.4172 1.41602 15.5834 4.59006 15.5834 8.49935C15.5834 12.4101 12.4172 15.5827 8.50008 15.5827C4.59008 15.5827 1.41675 12.4101 1.41675 8.49935ZM7.87675 5.81477C7.87675 5.47547 8.16008 5.19143 8.50008 5.19143C8.84008 5.19143 9.11633 5.47547 9.11633 5.81477V8.9456C9.11633 9.28631 8.84008 9.56185 8.50008 9.56185C8.16008 9.56185 7.87675 9.28631 7.87675 8.9456V5.81477ZM8.50716 11.8151C8.16008 11.8151 7.88383 11.5317 7.88383 11.1917C7.88383 10.8517 8.16008 10.5755 8.50008 10.5755C8.84717 10.5755 9.12341 10.8517 9.12341 11.1917C9.12341 11.5317 8.84717 11.8151 8.50716 11.8151Z" fill="white"/>
</svg>
