<svg width="24" height="24" viewBox="0 0 24 24" fill="none" xmlns="http://www.w3.org/2000/svg">
<path d="M6.99979 18.0004C6.80204 18.0004 6.60874 17.9417 6.44433 17.8318C6.27992 17.7219 6.15178 17.5658 6.07611 17.3831C6.00044 17.2004 5.98064 16.9993 6.0192 16.8054C6.05777 16.6114 6.15298 16.4333 6.29279 16.2934L16.2928 6.29341C16.4814 6.11125 16.734 6.01045 16.9962 6.01273C17.2584 6.01501 17.5092 6.12018 17.6946 6.30559C17.88 6.491 17.9852 6.74181 17.9875 7.00401C17.9897 7.2662 17.8889 7.5188 17.7068 7.70741L7.70679 17.7074C7.61405 17.8004 7.50385 17.8742 7.38252 17.9244C7.26119 17.9747 7.13112 18.0005 6.99979 18.0004Z" fill="#F53333"/>
<path d="M17.0033 18.0004C16.872 18.0005 16.7419 17.9747 16.6206 17.9244C16.4993 17.8742 16.3891 17.8004 16.2963 17.7074L6.29634 7.70741C6.11418 7.5188 6.01338 7.2662 6.01566 7.00401C6.01794 6.74181 6.12311 6.491 6.30852 6.30559C6.49393 6.12018 6.74474 6.01501 7.00694 6.01273C7.26913 6.01045 7.52173 6.11125 7.71034 6.29341L17.7103 16.2934C17.8501 16.4333 17.9454 16.6114 17.9839 16.8054C18.0225 16.9993 18.0027 17.2004 17.927 17.3831C17.8513 17.5658 17.7232 17.7219 17.5588 17.8318C17.3944 17.9417 17.2011 18.0004 17.0033 18.0004Z" fill="#F53333"/>
</svg>
