<svg
  xmlns="http://www.w3.org/2000/svg"
  width="41.966"
  height="37.77"
  viewBox="0 0 41.966 37.77"
>
  <g
    id="_2974a1bee046ca0b95b9194f73fc1a89"
    data-name="2974a1bee046ca0b95b9194f73fc1a89"
    transform="translate(-10 -59)"
  >
    <path
      id="Path_527"
      data-name="Path 527"
      d="M30.983,59C19.412,59,10,67.475,10,77.885a17.455,17.455,0,0,0,3.674,10.65L11.332,95.99l7.9-2.475A22.512,22.512,0,0,0,30.983,96.77c11.571,0,20.983-8.47,20.983-18.885S42.554,59,30.983,59ZM13.195,84.008h0l.026.064A.4.4,0,0,0,13.195,84.008Zm10.47-3.982a2.143,2.143,0,1,1,2.141-2.141A2.143,2.143,0,0,1,23.665,80.026Zm7.318,0a2.143,2.143,0,1,1,2.141-2.141A2.143,2.143,0,0,1,30.983,80.026Zm7.318,0a2.143,2.143,0,1,1,2.141-2.141A2.143,2.143,0,0,1,38.3,80.026Z"
      fill="#ff6923"
    />
  </g>
</svg>
