<svg
  width="16"
  height="18"
  viewBox="0 0 16 18"
  fill="none"
  xmlns="http://www.w3.org/2000/svg"
>
<path
    fill-rule="evenodd"
    clip-rule="evenodd"
    d="M14.6673 3.41487C14.6673 1.89648 13.4528 0.666646 11.9533 0.666646H9.79285C9.79285 1.67137 8.99374 2.48055 8.00151 2.48055C7.00928 2.48055 6.20931 1.67137 6.20931 0.666646L4.04803 0.667515C2.54852 0.667515 1.33398 1.89822 1.33398 3.41574L1.33398 14.5842C1.33398 16.1017 2.54852 17.3324 4.04803 17.3324L6.27969 17.3333C6.27969 16.3286 7.00928 15.5194 8.00151 15.5194C8.99374 15.5194 9.79285 16.3286 9.79285 17.3333H11.9533C13.4528 17.3333 14.6673 16.1035 14.6673 14.5851V3.41487Z"
    stroke="#261F5E"
    stroke-linecap="round"
    stroke-linejoin="round"
  />
</svg>
