 <svg
                    width="26"
                    height="22"
                    viewBox="0 0 26 22"
                    fill="none"
                    xmlns="http://www.w3.org/2000/svg"
                  >
                    <path
                      d="M25.9158 4.7268V19.9868C25.9158 21.0986 25.0132 21.9991 23.9025 21.9991L12.9579 21.9989H2.01339C0.90152 21.9989 8.39233e-05 21.0984 8.39233e-05 19.9865V4.72656L25.9158 4.7268ZM19.2175 17.2344H22.1969V14.2538H19.2163V17.2344H19.2175ZM19.2175 11.6596H22.1969V8.67902H19.2163V11.6596H19.2175ZM14.0504 17.2344H17.031V14.2538H14.0504V17.2344ZM14.0504 11.6596H17.031V8.67902H14.0504V11.6596ZM8.88441 17.2344H11.865V14.2538H8.88441V17.2344ZM8.88441 11.6596H11.865V8.67902H8.88441V11.6596ZM3.71845 17.2344H6.69903V14.2538H3.71845V17.2344ZM3.71845 11.6596H6.69903V8.67902H3.71845V11.6596Z"
                      fill="#261F5E"
                    />
                    <path
                      d="M8.39233e-05 3.66582V2.01233C8.39233e-05 0.900466 0.902674 0 2.01339 0L23.9025 0.000237024C25.0143 0.000237024 25.9158 0.900703 25.9158 2.01257V3.66581L8.39233e-05 3.66582Z"
                      fill="#261F5E"
                    />
                  </svg>