<svg xmlns="http://www.w3.org/2000/svg" width="55.264" height="52.78" viewBox="0 0 55.264 52.78">
  <g id="Group_69" data-name="Group 69" transform="translate(876.264 -3924)">
    <path id="Path_24" data-name="Path 24" d="M139.266,52.348c0-2.676-5.468-4.479-6.283-6.923-.814-2.5,2.56-7.214.989-9.308-1.571-2.152-7.039-.349-9.191-1.92-2.094-1.512-2.152-7.33-4.654-8.144-2.443-.814-5.817,3.839-8.551,3.839-2.676,0-6.108-4.654-8.551-3.839-2.5.814-2.56,6.574-4.654,8.144-2.152,1.571-7.621-.233-9.191,1.92-1.512,2.094,1.8,6.806.989,9.308C89.47,47.869,84,49.672,84,52.348s5.468,4.479,6.283,6.923c.814,2.5-2.56,7.214-.989,9.308,1.571,2.152,7.039.349,9.191,1.92,2.094,1.512,2.152,7.33,4.654,8.144,2.443.814,5.817-3.84,8.551-3.84,2.676,0,6.108,4.654,8.551,3.84,2.5-.814,2.56-6.574,4.654-8.144,2.152-1.571,7.621.233,9.191-1.92,1.512-2.094-1.8-6.806-.989-9.308C133.8,56.827,139.266,55.024,139.266,52.348ZM104.479,41.3a3.9,3.9,0,1,1-3.9,3.9A3.9,3.9,0,0,1,104.479,41.3ZM118.789,63.4a3.9,3.9,0,1,1,3.9-3.9A3.9,3.9,0,0,1,118.789,63.4Zm3.258-17.8L104.886,62.761a2.547,2.547,0,0,1-1.862.756,2.589,2.589,0,0,1-1.862-4.421l17.161-17.161a2.635,2.635,0,0,1,3.665,0,2.581,2.581,0,0,1,.058,3.665Z" transform="translate(-960.266 3898.042)" fill="#f60"/>
  </g>
</svg>
