<svg
  xmlns="http://www.w3.org/2000/svg"
  width="57.32"
  height="48.454"
  viewBox="0 0 57.32 48.454"
>
  <g
    id="_152f23e068e56aa4a58e5164977d29a0"
    data-name="152f23e068e56aa4a58e5164977d29a0"
    transform="translate(-10 -85.791)"
  >
    <g
      id="Group_14509"
      data-name="Group 14509"
      transform="translate(10 85.791)"
    >
      <path
        id="Path_545"
        data-name="Path 545"
        d="M34.064-425.166c-1.494.256-2.323.8-2.643,1.736-.2.6-.23,1.481-.268,9.179l-.039,8.528H22.6c-4.966,0-8.885.064-9.409.128-1.877.268-2.706.766-3.026,1.8-.128.447-.166,2.413-.166,9.562,0,8.362.013,9.051.23,9.753a2.474,2.474,0,0,0,1.558,1.736,29.026,29.026,0,0,0,4.047.243c2.643.051,3.574.115,3.7.243.166.166.191.5.217,3.1.013,1.187.051,1.4.306,1.787a1.49,1.49,0,0,0,1.57.574,17.943,17.943,0,0,0,2.86-2.566,24.789,24.789,0,0,1,3.064-2.757c.574-.306.587-.306,6.575-.383,6.179-.077,6.422-.089,7.468-.626,1.251-.638,1.277-.766,1.277-9.868v-7.519l2.336.051c3.013.064,2.872-.013,5.9,3.039a34.228,34.228,0,0,0,2.643,2.5,1.5,1.5,0,0,0,2.145-.945,16.3,16.3,0,0,0,.128-2.336c0-1.608.026-1.889.23-2.068s.8-.2,4.366-.243c4.583-.064,5.081-.128,5.923-.868.791-.7.778-.561.778-11.362,0-9-.013-9.83-.23-10.494A2.538,2.538,0,0,0,65.635-425c-.408-.153-2.962-.191-15.868-.2C41.3-425.217,34.243-425.2,34.064-425.166Zm8.476,10.813a1.483,1.483,0,0,1,.97,1.507,1.152,1.152,0,0,1-.421,1.06,1.55,1.55,0,0,1-1.787.4,1.631,1.631,0,0,1-.051-2.949A1.322,1.322,0,0,1,42.541-414.353Zm6.677.077a1.558,1.558,0,0,1,.842,1.4,1.558,1.558,0,0,1-.842,1.4,1.607,1.607,0,0,1-2.132-2.272A1.552,1.552,0,0,1,49.217-414.276Zm6.536-.026a1.872,1.872,0,0,1,.907,1.43,1.938,1.938,0,0,1-.23.753,1.872,1.872,0,0,1-1.43.907,1.85,1.85,0,0,1-1.659-1.659,1.871,1.871,0,0,1,.907-1.43,1.938,1.938,0,0,1,.753-.23A1.926,1.926,0,0,1,55.753-414.3Zm-19.9,16.941a.932.932,0,0,1,0,1.659c-.319.166-1.583.191-9.447.191s-9.128-.026-9.447-.191a.962.962,0,0,1,0-1.685c.243-.128,2.375-.166,9.421-.166C34.268-397.553,35.532-397.527,35.851-397.361Zm-4.762,4.979a1.017,1.017,0,0,1,.345.511,1.2,1.2,0,0,1-.5,1.136c-.115.038-3.281.077-7.034.077h-6.83l-.306-.319a.882.882,0,0,1-.038-1.3l.268-.294h6.919C29.788-392.574,30.86-392.549,31.09-392.383Z"
        transform="translate(-10 425.209)"
        fill="#ff6923"
      />
    </g>
  </g>
</svg>
