<svg
  width="31"
  height="27"
  viewBox="0 0 31 27"
  fill="none"
  xmlns="http://www.w3.org/2000/svg"
>
  <path
    d="M30.5927 14.4187L30.5945 14.3835C30.6364 12.6265 27.3345 12.1869 27.3345 12.1869L21.5396 11.2076L18.9129 7.02739C20.1371 6.86415 21.0266 6.34282 21.059 5.6824C21.1009 4.82701 19.6896 4.06278 17.9069 3.97544C17.5951 3.96016 17.293 3.96706 17.0058 3.99264L14.9889 0.782964L11.7495 0.36384L15.1113 10.9961L4.9306 11.4555L2.77462 7.94775L1.32804 7.87583L0.830433 18.0342L2.27698 18.104L4.7656 14.8238L14.8527 16.2763L10.4676 26.529L13.7325 26.4285L16.0535 23.4314C16.3368 23.485 16.6367 23.5214 16.9486 23.5367C18.7313 23.624 20.2105 23.0015 20.2524 22.1462C20.2848 21.4856 19.4503 20.8798 18.248 20.5976L21.2708 16.6943L27.1337 16.2861C27.1336 16.2862 30.4628 16.1715 30.5927 14.4187Z"
    fill="#261F5E"
  />
</svg>
