<svg
  width="61"
  height="61"
  viewBox="0 0 61 61"
  fill="none"
  xmlns="http://www.w3.org/2000/svg"
>
<circle cx="30.5" cy="30.5" r="30.5" fill="#47FF5A" />
<path
    d="M36.3709 46.1313C37.2097 46.1313 37.8958 45.4452 37.8958 44.6064C37.8958 43.7677 37.2097 43.0816 36.3709 43.0816H34.617L35.6082 40.8703H38.2769C39.1156 40.8703 39.8017 40.1842 39.8017 39.3454C39.8017 38.5067 39.1156 37.8206 38.2769 37.8206H36.9807L38.5819 34.1604C45.1397 33.5501 48.8 32.1776 48.8 30.5C48.8 28.8224 45.1399 27.4499 38.5826 26.9162L36.9814 23.256H38.2776C39.1163 23.256 39.8024 22.5699 39.8024 21.7312C39.8024 20.8924 39.1163 20.2063 38.2776 20.2063H35.6089L34.6177 17.995H36.3716C37.2103 17.995 37.8964 17.3089 37.8964 16.4702C37.8964 15.6314 37.2103 14.9453 36.3716 14.9453H33.2452L32.1012 12.2L28.2124 12.2L30.9573 26.7638C25.62 26.9925 20.2824 28.1363 16.6987 29.1275L13.1149 24.5526H12.2001L14.03 30.5V30.5763L12.2001 36.4475L13.1151 36.4475L16.6989 31.8725C20.2827 32.8637 25.5438 34.0075 30.9575 34.2362L28.2123 48.8H32.1011L33.2449 46.1313L36.3709 46.1313Z"
    fill="#26205E"
  />
</svg>
