<svg width="43" height="43" viewBox="0 0 43 43" fill="none" xmlns="http://www.w3.org/2000/svg">
<circle cx="21.1416" cy="21.0265" r="21.0265" fill="#29255D"/>
<g clip-path="url(#clip0_3606_22776)">
<path d="M33.2549 20.674L33.2562 20.6494C33.2878 19.4233 30.7947 19.1166 30.7947 19.1166L26.4191 18.4332L24.4358 15.5163C25.3601 15.4024 26.0318 15.0386 26.0562 14.5778C26.0879 13.9809 25.0222 13.4476 23.6762 13.3866C23.4407 13.376 23.2126 13.3808 22.9958 13.3986L21.4729 11.1589L19.0269 10.8664L21.5653 18.2857L13.8782 18.6062L12.2503 16.1585L11.158 16.1083L10.7823 23.1969L11.8745 23.2456L13.7536 20.9567L21.37 21.9702L18.059 29.1245L20.5242 29.0545L22.2767 26.9631C22.4907 27.0005 22.7171 27.0258 22.9526 27.0365C24.2987 27.0975 25.4156 26.663 25.4472 26.0662C25.4716 25.6053 24.8416 25.1825 23.9337 24.9856L26.2162 22.2619L30.643 21.9771C30.643 21.9771 33.1567 21.8971 33.2549 20.674Z" fill="white"/>
</g>
<defs>
<clipPath id="clip0_3606_22776">
<rect width="23.6284" height="23.811" fill="white" transform="matrix(0.700286 0.713862 -0.766526 0.642214 21.2517 4)"/>
</clipPath>
</defs>
</svg>
