<svg width="43" height="43" viewBox="0 0 43 43" fill="none" xmlns="http://www.w3.org/2000/svg">
<circle cx="21.1416" cy="21.0265" r="21.0265" fill="#29255D"/>
<path d="M24.5359 30.194C25.032 30.194 25.4379 29.7882 25.4379 29.2921C25.4379 28.796 25.032 28.3901 24.5359 28.3901H23.4985L24.0848 27.0822H25.6633C26.1594 27.0822 26.5653 26.6764 26.5653 26.1802C26.5653 25.6841 26.1594 25.2783 25.6633 25.2783H24.8966L25.8438 23.1133C29.7226 22.7523 31.8878 21.9405 31.8878 20.9482C31.8878 19.9559 29.7228 19.1441 25.8442 18.8284L24.897 16.6635H25.6637C26.1598 16.6635 26.5657 16.2576 26.5657 15.7615C26.5657 15.2654 26.1598 14.8596 25.6637 14.8596L24.0852 14.8596L23.4989 13.5516H24.5363C25.0324 13.5516 25.4383 13.1458 25.4383 12.6497C25.4383 12.1535 25.0324 11.7477 24.5363 11.7477H22.6871L22.0104 10.1239H19.7101L21.3338 18.7383C18.1768 18.8736 15.0196 19.5501 12.8998 20.1364L10.78 17.4303H10.2389L11.3213 20.9482V20.9934L10.2389 24.4661H10.7801L12.8999 21.7601C15.0198 22.3463 18.1317 23.0229 21.3339 23.1582L19.7101 31.7725H22.0103L22.6869 30.194L24.5359 30.194Z" fill="white"/>
</svg>
