<svg width="22" height="19" viewBox="0 0 22 19" fill="none" xmlns="http://www.w3.org/2000/svg">
<path d="M21.0188 10.2465L21.02 10.2226C21.0484 9.03088 18.8088 8.73275 18.8088 8.73275L14.8785 8.06852L13.0968 5.23329C13.9271 5.12257 14.5305 4.76897 14.5524 4.32104C14.5809 3.74087 13.6237 3.22253 12.4145 3.16328C12.203 3.15292 11.9981 3.1576 11.8034 3.17495L10.4354 0.997973L8.23825 0.7137L10.5184 7.92508L3.6133 8.23667L2.15099 5.85752L1.16984 5.80874L0.83234 12.6987L1.81347 12.7461L3.50139 10.5212L10.343 11.5064L7.36879 18.4603L9.58321 18.3922L11.1575 16.3594C11.3496 16.3957 11.553 16.4204 11.7646 16.4308C12.9737 16.49 13.977 16.0678 14.0054 15.4877C14.0273 15.0396 13.4614 14.6287 12.6459 14.4374L14.6961 11.7899L18.6726 11.5131C18.6726 11.5131 20.9306 11.4353 21.0188 10.2465Z" fill="#26205E"/>
</svg>
