<svg
  width="396"
  height="18"
  viewBox="0 0 396 18"
  fill="none"
  xmlns="http://www.w3.org/2000/svg"
>
                <path
    d="M202.887 16.6875C203.3 16.6875 203.637 16.3501 203.637 15.9376C203.637 15.5251 203.3 15.1877 202.887 15.1877H202.025L202.512 14.1002L203.825 14.1002C204.237 14.1002 204.575 13.7627 204.575 13.3502C204.575 12.9377 204.237 12.6003 203.825 12.6003H203.187L203.975 10.8002C207.2 10.5 209 9.82504 209 9C209 8.17496 207.2 7.49996 203.975 7.23746L203.188 5.43739H203.825C204.238 5.43739 204.575 5.09995 204.575 4.68745C204.575 4.27495 204.238 3.93751 203.825 3.93751H202.513L202.025 2.85001H202.888C203.3 2.85001 203.638 2.51258 203.638 2.10007C203.638 1.68757 203.3 1.35014 202.888 1.35014L201.35 1.35014L200.787 0L198.875 0L200.225 7.16253C197.6 7.27501 194.975 7.83753 193.212 8.325L191.45 6.07502H191L191.9 9V9.03754L191 11.925H191.45L193.213 9.675C194.975 10.1625 197.563 10.725 200.225 10.8375L198.875 18H200.787L201.35 16.6875L202.887 16.6875Z"
    fill="#9E9BBF"
  />
                <line
    y1="8.5"
    x2="174"
    y2="8.5"
    stroke="#9E9BBF"
    stroke-opacity="0.3"
    stroke-dasharray="2 2"
  />
                <line
    x1="222"
    y1="8.5"
    x2="396"
    y2="8.5"
    stroke="#9E9BBF"
    stroke-opacity="0.3"
    stroke-dasharray="2 2"
  />
              </svg>
