<svg width="34" height="27" viewBox="0 0 34 27" fill="none" xmlns="http://www.w3.org/2000/svg">
<path d="M0.140625 5.90123C0.140625 4.15353 0.659892 2.66136 1.7496 1.58887L3.64473 3.45407C1.53545 5.52259 3.37752 11.9538 9.3832 17.8703C15.3889 23.7867 21.9271 25.5978 24.0345 23.5256L25.9296 25.3908C22.3744 28.8899 14.2764 26.4073 7.49754 19.7336C2.79571 15.1042 0.140625 9.85174 0.140625 5.90123Z" fill="#009A46"/>
<path d="M12.0905 26.9987C10.3147 26.9987 8.79863 26.4876 7.70703 25.4151L9.60217 23.5499C11.7077 25.6221 18.2421 23.8092 24.2535 17.8946C30.2648 11.98 32.1031 5.54878 29.9976 3.47654L31.8928 1.61133C35.4499 5.11046 32.9256 13.0805 26.1448 19.7523C21.4411 24.3874 16.1044 26.9987 12.0905 26.9987Z" fill="#FF5805"/>
<path d="M26.7719 17.0832C25.6216 13.8228 23.2716 10.3386 20.1541 7.2722C13.3752 0.59849 5.27727 -1.88597 1.72199 1.61503C1.46994 1.86497 1.68788 2.48235 2.21094 2.99715C2.734 3.51195 3.36129 3.72458 3.61334 3.47651C5.72073 1.40426 12.2552 3.21724 18.2646 9.13368C21.1073 11.9315 23.2261 15.0557 24.2476 17.9468C25.1421 20.4816 25.0549 22.5259 24.0126 23.5517C23.7586 23.7998 23.9785 24.4191 24.4996 24.932C25.0208 25.4449 25.65 25.6613 25.9039 25.4114C27.7252 23.6189 28.0341 20.6569 26.7719 17.0832Z" fill="#F5AFCB"/>
<path d="M31.8898 1.615C30.0648 -0.181195 27.0591 -0.485224 23.4242 0.75887C20.1134 1.88919 16.5714 4.20391 13.4558 7.27031C6.67689 13.9422 4.15257 21.9122 7.70784 25.4132C7.96179 25.6613 8.58908 25.4468 9.11214 24.9338C9.63519 24.4209 9.85313 23.8016 9.59919 23.5517C7.488 21.4795 9.33576 15.0482 15.3471 9.13179C18.1898 6.33398 21.3642 4.24867 24.3016 3.24333C26.8771 2.36481 28.9542 2.44875 29.9984 3.47461C30.2505 3.72268 30.8797 3.50819 31.4008 2.99339C31.922 2.47859 32.1418 1.86307 31.8898 1.615Z" fill="#FF9B00"/>
</svg>
