<svg
  width="30"
  height="30"
  viewBox="0 0 30 30"
  fill="none"
  xmlns="http://www.w3.org/2000/svg"
>
<circle cx="15" cy="15" r="14" stroke="white" stroke-width="2" />
<path
    d="M17.8906 13.6988V16.6748H18.8866V18.1868H17.8906V20.0588H16.2346V18.1868H11.8306V17.1188C12.3266 16.6388 12.7506 16.1388 13.1026 15.6188C13.4626 15.0908 13.7626 14.5548 14.0026 14.0108C14.2506 13.4588 14.4466 12.9028 14.5906 12.3428C14.7346 11.7828 14.8346 11.2348 14.8906 10.6988H16.4746C16.4266 11.2188 16.3386 11.7588 16.2106 12.3188C16.0826 12.8788 15.9066 13.4268 15.6826 13.9628C15.4586 14.4988 15.1906 15.0068 14.8786 15.4868C14.5666 15.9588 14.2026 16.3708 13.7866 16.7228L16.2346 16.6748V14.1788L17.8906 13.6988Z"
    fill="white"
  />
</svg>
