<svg xmlns="http://www.w3.org/2000/svg" width="48.583" height="34.241" viewBox="0 0 48.583 34.241">
  <g id="f338012f9f1b6f6b2cfbb8f9179c8744" transform="translate(-10 -154.7)">
    <path id="Path_514" data-name="Path 514" d="M58.583,187.429h0a1.509,1.509,0,0,1-1.512,1.512H45.8a1.881,1.881,0,0,0,1.477-1.834v0h0s0-6.846-5.022-9.34a9.06,9.06,0,0,0-3.356-1.115l.03-2.965s-1.17-.892-1.537-3.693c-.734.213-.977-.858-1.016-1.537-.04-.659-.426-2.712.471-2.528a17.575,17.575,0,0,1-.248-3.262c.223-2.3,2.449-4.7,5.87-4.878,4.025.173,5.622,2.578,5.845,4.878a18.322,18.322,0,0,1-.263,3.262c.892-.183.506,1.869.461,2.528-.04.679-.288,1.745-1.016,1.537-.367,2.8-1.537,3.688-1.537,3.688l.03,2.965s.744.421,3.872,1.715,2.147.327,4.695,1.591c4.03,1.988,4.03,7.481,4.03,7.481ZM35.883,177.3c3.44,1.423,2.36.357,5.161,1.75,4.427,2.2,4.427,8.234,4.427,8.234h0v0a1.657,1.657,0,0,1-1.661,1.656H11.666A1.661,1.661,0,0,1,10,187.285v0h0s0-6.038,4.427-8.234c2.8-1.388,1.725-.263,5.161-1.681a39.336,39.336,0,0,0,4.253-1.914l.035-3.272s-1.289-.982-1.69-4.06c-.8.233-1.071-.942-1.12-1.691-.045-.724-.466-2.979.516-2.776a19.9,19.9,0,0,1-.278-3.589c.248-2.528,2.692-5.171,6.455-5.364,4.427.193,6.182,2.831,6.425,5.359a19.608,19.608,0,0,1-.288,3.584c.982-.2.555,2.052.511,2.776-.045.749-.317,1.919-1.12,1.69-.4,3.079-1.69,4.055-1.69,4.055l.03,3.257c0-.01.823.456,4.258,1.874" fill="#ff6923"/>
  </g>
</svg>
