<svg width="24" height="24" viewBox="0 0 24 24" fill="none" xmlns="http://www.w3.org/2000/svg">
<path d="M10.2683 12.24H12.4763V12.96C12.4763 13.896 11.7323 14.64 10.7963 14.64H8.34825L8.80425 12.24H8.90025L10.1962 13.536C10.3162 13.632 10.4363 13.68 10.5563 13.68C10.6763 13.68 10.7963 13.632 10.8923 13.536C11.0843 13.344 11.0843 13.056 10.8923 12.864L10.2683 12.24ZM21.3563 5.04004H17.5163V6.96004C17.5163 7.22404 17.3003 7.44004 17.0363 7.44004H9.35625C9.09225 7.44004 8.87625 7.22404 8.87625 6.96004V5.04004H5.08425C4.98825 5.04004 4.89225 5.06404 4.82025 5.13604L2.37225 6.84004C2.25225 6.93604 2.15625 7.08004 2.15625 7.22404V8.88004H21.3563C21.6203 8.88004 21.8363 8.66404 21.8363 8.40004V5.52004C21.8363 5.25604 21.6203 5.04004 21.3563 5.04004ZM16.5563 5.04004H9.83625V6.48004H16.5563V5.04004ZM2.15625 10.272C2.15625 10.44 2.22825 10.584 2.37225 10.68L3.40425 11.352C3.57225 11.448 3.64425 11.64 3.62025 11.832L2.37225 18.384C2.32425 18.576 2.42025 18.72 2.46825 18.768C2.51625 18.84 2.63625 18.936 2.82825 18.936H6.16425C6.40425 18.936 6.59625 18.768 6.64425 18.552L7.96425 11.664C8.01225 11.424 8.20425 11.28 8.44425 11.28H19.9163C20.1803 11.28 20.3963 11.064 20.3963 10.8V9.84004H2.15625V10.272Z" fill="black"/>
</svg>
