<svg
  xmlns="http://www.w3.org/2000/svg"
  width="53.001"
  height="55.905"
  viewBox="0 0 53.001 55.905"
>
  <g
    id="_7c14880ded6c2a6f791d1efba6b04d32"
    data-name="7c14880ded6c2a6f791d1efba6b04d32"
    transform="translate(-35.294 -9.986)"
  >
    <path
      id="Path_513"
      data-name="Path 513"
      d="M88.278,60.454c-.074-.342-2.008-8.323-14.934-9.549a8.779,8.779,0,0,1-4.729-2.225V45.525A22.666,22.666,0,0,1,74.456,35.8,6.422,6.422,0,0,0,76.2,31.4a3.809,3.809,0,0,0-1.084-2.618c.017-2.932.125-8.825.125-8.882V19.73l-.04-.165c-.108-.434-2.864-10.382-21.2-9.527l-.867.04-.291.816a6.779,6.779,0,0,1-.473.981,3.638,3.638,0,0,0-.633,2.253,12.029,12.029,0,0,1-1.147,1.341,11.949,11.949,0,0,0-2.453,3.36l-.08.211-.006.228c-.057,2.533-.017,7.821-.006,9.367a6.083,6.083,0,0,0-.245,6.218l.85,1.175c3.8,5.077,5.744,8.123,5.773,9.019l-.183,3.862a9.021,9.021,0,0,1-5.3,2.048h-.188c-2.9,0-8.705,2.322-11.6,5.168a5.174,5.174,0,0,0-1.854,3.668l.086,4.763,32.7.262c1.175.114,2.578.6,2.721.953l2.578.12a2.25,2.25,0,0,0-.046-.4,5.537,5.537,0,0,1,2.516-.662H88.295v-4.1Z"
      transform="translate(0 0)"
      fill="#ff6923"
    />
  </g>
</svg>
