<svg
  id="Group_14506"
  data-name="Group 14506"
  xmlns="http://www.w3.org/2000/svg"
  width="48.315"
  height="42"
  viewBox="0 0 48.315 42"
>
  <path
    id="Path_518"
    data-name="Path 518"
    d="M447.725-436.891a2.675,2.675,0,0,0-2.085,2.642,2.626,2.626,0,0,0,2.68,2.68,2.686,2.686,0,0,0,1.991-4.5A2.9,2.9,0,0,0,447.725-436.891Z"
    transform="translate(-424.162 436.948)"
    fill="#ff6923"
  />
  <path
    id="Path_519"
    data-name="Path 519"
    d="M11.123-412.212A1.658,1.658,0,0,0,10-410.74a1.81,1.81,0,0,0,.736,1.293l.349.217H28.92l.349-.217a1.811,1.811,0,0,0,.736-1.293,1.81,1.81,0,0,0-.736-1.293l-.349-.217-8.776-.019C15.322-412.278,11.255-412.25,11.123-412.212Z"
    transform="translate(-10 413.487)"
    fill="#ff6923"
  />
  <path
    id="Path_520"
    data-name="Path 520"
    d="M585.324-412.2a1.608,1.608,0,0,0-1.114,1.482,1.81,1.81,0,0,0,.736,1.274l.349.217H603.13l.349-.217a1.811,1.811,0,0,0,.736-1.293,1.81,1.81,0,0,0-.736-1.293l-.349-.217-8.776-.019C589.533-412.278,585.466-412.25,585.324-412.2Z"
    transform="translate(-555.901 413.487)"
    fill="#ff6923"
  />
  <path
    id="Path_521"
    data-name="Path 521"
    d="M148.532-318.693a17.989,17.989,0,0,0-10.022,4.832,16.966,16.966,0,0,0-3.765,5.134,17.949,17.949,0,0,0,3.01,20.289l.9.934-1.236,1.245a17.252,17.252,0,0,0-1.34,1.453,1.957,1.957,0,0,0,.038,1.349,1.559,1.559,0,0,0,1.764.745c.33-.085.651-.349,1.774-1.463.755-.745,1.4-1.359,1.425-1.359a8.931,8.931,0,0,1,.849.453,18.4,18.4,0,0,0,6.407,2.246,23.352,23.352,0,0,0,5,.047,18.742,18.742,0,0,0,6.643-2.265,9.385,9.385,0,0,1,.9-.481c.028,0,.67.613,1.425,1.359,1.123,1.113,1.444,1.377,1.774,1.463a1.558,1.558,0,0,0,1.764-.745,1.957,1.957,0,0,0,.038-1.349,17.339,17.339,0,0,0-1.34-1.453l-1.227-1.246.887-.934a17.966,17.966,0,0,0,3.105-20.109,18.034,18.034,0,0,0-11.975-9.776A19.744,19.744,0,0,0,148.532-318.693Zm5.482,3.142a15.169,15.169,0,0,1,11.928,12.843c.066.547.132,1.217.132,1.482v.5h-30.2v-.5a17.679,17.679,0,0,1,.472-3.275,15.225,15.225,0,0,1,11.6-11.031,10.74,10.74,0,0,1,3.359-.246A13.359,13.359,0,0,1,154.014-315.551Z"
    transform="translate(-126.818 324.658)"
    fill="#ff6923"
  />
</svg>
