<svg id="Iconly_Bold_Home" data-name="Iconly/Bold/Home" xmlns="http://www.w3.org/2000/svg" width="15.675" height="16.5" viewBox="0 0 15.675 16.5">
  <g id="Home">
    <path id="Home-2" data-name="Home" d="M5.474,15.488V12.965A1.17,1.17,0,0,1,6.648,11.8H9.019a1.179,1.179,0,0,1,.831.342,1.162,1.162,0,0,1,.344.824v2.523a1,1,0,0,0,.294.715,1.016,1.016,0,0,0,.718.3h1.618a2.855,2.855,0,0,0,2.016-.824,2.813,2.813,0,0,0,.836-2V6.49a2.04,2.04,0,0,0-.739-1.569L9.433.558A2.555,2.555,0,0,0,6.175.616L.8,4.921A2.041,2.041,0,0,0,0,6.49v7.179A2.841,2.841,0,0,0,2.851,16.5H4.432a1.016,1.016,0,0,0,1.019-1Z" transform="translate(0 0)" fill="#242424"/>
  </g>
</svg>
