<svg width="24" height="24" viewBox="0 0 24 24" fill="none" xmlns="http://www.w3.org/2000/svg">
<g clip-path="url(#clip0_2520_58287)">
<path d="M22.5 9H21C20.6022 9 20.2206 9.15804 19.9393 9.43934C19.658 9.72064 19.5 10.1022 19.5 10.5V9C19.5 8.60218 19.658 8.22064 19.9393 7.93934C20.2206 7.65804 20.6022 7.5 21 7.5H23.25C23.4489 7.5 23.6397 7.42098 23.7803 7.28033C23.921 7.13968 24 6.94891 24 6.75C24 6.55109 23.921 6.36032 23.7803 6.21967C23.6397 6.07902 23.4489 6 23.25 6H21C20.2044 6 19.4413 6.31607 18.8787 6.87868C18.3161 7.44129 18 8.20435 18 9V10.5H6V9C6 8.20435 5.68393 7.44129 5.12132 6.87868C4.55871 6.31607 3.79565 6 3 6H0.75C0.551088 6 0.360322 6.07902 0.21967 6.21967C0.0790176 6.36032 0 6.55109 0 6.75C0 6.94891 0.0790176 7.13968 0.21967 7.28033C0.360322 7.42098 0.551088 7.5 0.75 7.5H3C3.39782 7.5 3.77936 7.65804 4.06066 7.93934C4.34196 8.22064 4.5 8.60218 4.5 9V10.5C4.5 10.1022 4.34196 9.72064 4.06066 9.43934C3.77936 9.15804 3.39782 9 3 9H1.5C1.10218 9 0.720644 9.15804 0.43934 9.43934C0.158035 9.72064 0 10.1022 0 10.5L0 16.5C0 16.8978 0.158035 17.2794 0.43934 17.5607C0.720644 17.842 1.10218 18 1.5 18H3C3.39782 18 3.77936 17.842 4.06066 17.5607C4.34196 17.2794 4.5 16.8978 4.5 16.5H9C9.09856 16.5002 9.19618 16.4809 9.2873 16.4433C9.37841 16.4058 9.46122 16.3506 9.531 16.281L10.8105 15H13.1895L14.4705 16.281C14.6111 16.4212 14.8015 16.5 15 16.5H19.5C19.5 16.8978 19.658 17.2794 19.9393 17.5607C20.2206 17.842 20.6022 18 21 18H22.5C22.8978 18 23.2794 17.842 23.5607 17.5607C23.842 17.2794 24 16.8978 24 16.5V10.5C24 10.1022 23.842 9.72064 23.5607 9.43934C23.2794 9.15804 22.8978 9 22.5 9Z" fill="black"/>
</g>
<defs>
<clipPath id="clip0_2520_58287">
<rect width="24" height="24" fill="white"/>
</clipPath>
</defs>
</svg>
