<svg
  xmlns="http://www.w3.org/2000/svg"
  width="20.277"
  height="20.277"
  viewBox="0 0 20.277 20.277"
>
  <g
    id="Group_14291"
    data-name="Group 14291"
    transform="translate(813.17 -6047)"
  >
    <path
      id="Path_370"
      data-name="Path 370"
      d="M87.669,17.667a10.139,10.139,0,1,0,14.338,0A10.139,10.139,0,0,0,87.669,17.667Zm7.576,1.284a1.562,1.562,0,0,1,0,3.124,1.576,1.576,0,0,1-1.562-1.584,1.553,1.553,0,0,1,1.562-1.541Zm2.2,10.465a1.023,1.023,0,0,1-.214.364,2.79,2.79,0,0,1-2.055.92,6.725,6.725,0,0,1-1.134-.064,1.655,1.655,0,0,1-1.305-1.669L93,27.3c.171-.963.342-1.947.514-2.91,0-.064.021-.128.021-.193,0-.407-.128-.556-.535-.6a4.3,4.3,0,0,1-.514-.086.377.377,0,0,1-.278-.385c.021-.171.128-.278.342-.321a1.963,1.963,0,0,1,.364-.021h2.953c.364,0,.578.171.578.535a4.3,4.3,0,0,1-.107.9c-.193,1.113-.407,2.2-.6,3.317-.064.364-.15.728-.193,1.091a1.513,1.513,0,0,0,.043.535.424.424,0,0,0,.471.342,1.975,1.975,0,0,0,.578-.171,4.016,4.016,0,0,1,.428-.214c.257-.086.449.064.385.3Z"
      transform="translate(-897.87 6032.302)"
      fill="#3b3e43"
    />
  </g>
</svg>
