<svg
  width="183"
  height="33"
  viewBox="0 0 183 33"
  fill="none"
  xmlns="http://www.w3.org/2000/svg"
>
<path
    d="M141.892 0.000218711C141.13 -0.00763817 140.397 0.291448 139.859 0.830029C139.32 1.36861 139.021 2.10133 139.029 2.86296C139.029 4.44401 140.311 5.7257 141.892 5.7257C143.473 5.7257 144.755 4.44401 144.755 2.86296C144.764 2.10085 144.465 1.36718 143.927 0.828247C143.388 0.289313 142.654 -0.00925375 141.892 0.000218711ZM54.6946 14.8667C55.2454 13.1463 56.8448 11.979 58.6512 11.979C60.4577 11.979 62.0571 13.1463 62.6079 14.8667H54.6946ZM35.7726 14.8667C36.3234 13.1463 37.9228 11.979 39.7292 11.979C41.5357 11.979 43.1351 13.1463 43.6859 14.8667H35.7726ZM173.527 20.7609C171.818 20.775 170.269 19.7563 169.605 18.1811C168.941 16.6059 169.294 14.7858 170.497 13.5721C171.701 12.3584 173.518 11.991 175.099 12.6418C176.679 13.2927 177.711 14.8331 177.711 16.5424C177.723 17.659 177.288 18.7339 176.502 19.5267C175.715 20.3195 174.644 20.7641 173.527 20.7609H173.527ZM102.628 20.7609C100.919 20.775 99.3699 19.7563 98.7059 18.1811C98.042 16.6059 98.3942 14.7858 99.5979 13.5721C100.802 12.3584 102.619 11.991 104.199 12.6418C105.78 13.2927 106.812 14.8331 106.812 16.5424C106.821 17.658 106.384 18.7311 105.599 19.5232C104.813 20.3154 103.744 20.7609 102.628 20.7609ZM7.0463 8.40224C3.04361 8.99244 0.05944 12.398 0 16.4435C0 20.8889 3.49115 24.5896 7.72125 24.5896C8.72023 24.5926 9.70962 24.3948 10.6305 24.0077V19.5332C9.94738 19.9657 9.15811 20.2013 8.34966 20.214C6.25155 20.2269 4.5376 18.5415 4.51522 16.4435C4.54799 14.8621 5.56285 13.4687 7.05794 12.9524L7.0463 8.40224ZM17.3161 8.40224H9.23408V12.8011H12.8009V25.0201C12.8319 25.9845 12.4624 26.9188 11.7801 27.6011C11.0979 28.2834 10.1636 28.6529 9.19917 28.6218H7.0463V32.9974H9.20498C11.3494 33.0527 13.4243 32.2344 14.9537 30.7303C16.4831 29.2261 17.3357 27.1651 17.3161 25.0201V8.40224ZM24.0075 8.40224H19.5039V24.6943H24.0075V8.40224ZM131.069 8.40224H126.56V24.6943H131.069V8.40224ZM144.132 8.40224H139.646V24.6943H144.149L144.132 8.40224ZM28.2259 7.9484C27.0646 7.94604 26.0165 8.64408 25.571 9.71651C25.1255 10.7889 25.3706 12.0242 26.1917 12.8453C27.0129 13.6665 28.2481 13.9115 29.3205 13.466C30.393 13.0205 31.091 11.9724 31.0887 10.8111C31.0965 10.0495 30.7974 9.31678 30.2589 8.7782C29.7203 8.23962 28.9876 7.94053 28.2259 7.9484ZM39.7118 7.94834C35.3885 8.01225 31.7858 11.2781 31.2993 15.5744C30.8127 19.8706 33.5938 23.8595 37.7932 24.8886C41.9927 25.9177 46.3029 23.6666 47.8578 19.6321H42.8014C42.1062 20.5997 40.9655 21.1459 39.7758 21.0809C37.9368 21.1522 36.305 19.9107 35.8832 18.1193H48.1022C48.2392 17.5477 48.3056 16.9615 48.3 16.3737C48.2268 11.6876 44.3984 7.93189 39.7118 7.94834ZM58.6396 7.9484C54.3163 8.01225 50.7137 11.2781 50.2271 15.5744C49.7405 19.8706 52.5216 23.8595 56.7211 24.8886C60.9205 25.9177 65.2307 23.6666 66.7856 19.6321H61.7293C61.0352 20.5979 59.8971 21.1439 58.7094 21.0809C56.8683 21.155 55.2332 19.9129 54.811 18.1193H67.03C67.1649 17.5474 67.2294 16.9612 67.222 16.3737C67.1552 11.6954 63.3417 7.93892 58.6629 7.94257L58.6396 7.9484ZM78.0969 7.94254C76.3225 7.93667 74.6124 8.60657 73.3141 9.81616V8.40224H68.9967V24.6943H73.5061V15.8675C73.4534 14.5683 74.1165 13.3446 75.2336 12.6793C76.3508 12.0141 77.7426 12.0141 78.8597 12.6793C79.9769 13.3446 80.64 14.5683 80.5873 15.8675L80.5873 24.6826H85.0909V14.9307C85.1067 13.068 84.3713 11.2775 83.0509 9.96359C81.7304 8.64971 79.9363 7.92328 78.0737 7.94839L78.0969 7.94254ZM101.988 7.9484C97.6124 7.9484 93.9409 11.8119 93.9409 16.5424C93.9409 21.2729 97.6124 25.1365 101.988 25.1365C103.81 25.1267 105.568 24.4663 106.945 23.2745L106.945 24.6884H111.321V8.39642H106.945V9.81034C105.569 8.61641 103.81 7.95397 101.988 7.94257V7.9484ZM122.231 7.94258C120.647 7.94258 119.362 9.22687 119.362 10.8111C119.362 12.3954 120.647 13.6797 122.231 13.6797C123.815 13.6797 125.099 12.3954 125.099 10.8111C125.107 10.0495 124.808 9.31678 124.27 8.7782C123.731 8.23962 122.998 7.94054 122.237 7.9484L122.231 7.94258ZM135.299 7.9484C133.714 7.9484 132.43 9.23387 132.431 10.8189C132.432 12.4039 133.718 13.6877 135.303 13.6855C136.888 13.6834 138.171 12.3961 138.168 10.8111C138.176 10.0485 137.876 9.31486 137.336 8.7761C136.796 8.23734 136.062 7.93896 135.299 7.9484ZM154.611 7.94835C150.086 7.97958 146.36 11.5144 146.092 16.0316C145.823 20.5488 149.103 24.5006 153.592 25.0684C158.082 25.6361 162.242 22.6252 163.106 18.1833H158.411C157.787 19.7361 156.285 20.7557 154.611 20.7609C152.494 20.7968 150.678 19.2576 150.367 17.1631C150.056 15.0687 151.345 13.068 153.382 12.4867C155.418 11.9053 157.569 12.9236 158.411 14.8667H163.106C162.285 10.8306 158.73 7.93509 154.611 7.94835ZM172.893 7.94839C168.512 7.94839 164.846 11.8119 164.846 16.5424C164.846 21.2729 168.512 25.1365 172.893 25.1365C174.711 25.1255 176.465 24.4651 177.839 23.2745V24.6884H182.215V8.39642H177.839V9.81034C176.464 8.61636 174.708 7.95381 172.887 7.94258L172.893 7.94839ZM122.935 0.227144H121.771C116.948 0.227144 113.503 3.63683 113.503 8.37315V24.6652H118.007V8.49534C117.97 7.48624 118.355 6.50753 119.069 5.79353C119.783 5.07953 120.762 4.69453 121.771 4.73072L122.935 4.73072V0.227144Z"
    fill="#47FF5A"
  />
</svg>
