<svg
  xmlns="http://www.w3.org/2000/svg"
  width="63.121"
  height="63.121"
  viewBox="0 0 63.121 63.121"
>
  <path
    id="Path_29"
    data-name="Path 29"
    d="M136.428,11.2H104.868a7.89,7.89,0,0,0-7.89,7.89v43.4a3.945,3.945,0,0,1-7.891,0V38.815a3.945,3.945,0,0,0-7.89,0V62.485A11.835,11.835,0,0,0,93.032,74.32h41.423a9.863,9.863,0,0,0,9.863-9.863V19.089a7.891,7.891,0,0,0-7.89-7.89ZM125.579,62.485H106.84V56.568h18.739Zm8.877-11.835H106.84V44.732h27.616Zm-8.877-11.835H106.84V32.9h18.739Zm8.877-11.835H106.84V21.061h27.616Z"
    transform="translate(-81.197 -11.199)"
    fill="#f60"
  />
</svg>
