<svg width="22" height="24" viewBox="0 0 22 24" fill="none" xmlns="http://www.w3.org/2000/svg">
<path d="M13.4227 5.85H7.94531V12H13.4227V5.85ZM9.74883 1.8H11.5523V4.875H12.4875V1.275C12.4875 0.975 12.2871 0.75 12.0199 0.75H9.34805C9.08086 0.75 8.88047 0.975 8.88047 1.275V4.875H9.81563V1.8H9.74883Z" fill="#261F5E"/>
<path d="M5.68119 21.2246H6.14877V22.7246C6.14877 23.0246 6.34916 23.2496 6.61635 23.2496H8.41987C8.68705 23.2496 8.88744 23.0246 8.88744 22.7246V21.2246H12.5613V22.7246C12.5613 23.0246 12.7617 23.2496 13.0289 23.2496H14.8324C15.0996 23.2496 15.2999 23.0246 15.2999 22.7246V21.2246H15.7675C16.0347 21.2246 16.2351 20.9996 16.2351 20.6996V6.37461C16.2351 6.07461 16.0347 5.84961 15.7675 5.84961H14.4316V12.5246C14.4316 12.8246 14.2312 13.0496 13.964 13.0496H11.6929V14.0996H9.8894V13.0496H7.6183C7.35112 13.0496 7.15073 12.8246 7.15073 12.5246V5.84961H5.81479C5.5476 5.84961 5.34721 6.07461 5.34721 6.37461V20.6996C5.21362 20.9996 5.41401 21.2246 5.68119 21.2246ZM14.3648 21.2246V22.2746H13.4296V21.2246H14.3648ZM7.95229 16.1246H13.4296C13.6968 16.1246 13.8972 16.3496 13.8972 16.6496C13.8972 16.9496 13.6968 17.1746 13.4296 17.1746H7.95229C7.6851 17.1746 7.48471 16.9496 7.48471 16.6496C7.48471 16.3496 7.6851 16.1246 7.95229 16.1246ZM7.95229 18.1496H13.4296C13.6968 18.1496 13.8972 18.3746 13.8972 18.6746C13.8972 18.9746 13.6968 19.1996 13.4296 19.1996H7.95229C7.6851 19.1996 7.48471 18.9746 7.48471 18.6746C7.48471 18.3746 7.6851 18.1496 7.95229 18.1496ZM7.08393 21.2246H8.01909V22.2746H7.08393V21.2246Z" fill="#261F5E"/>
</svg>
