<svg
  width="26"
  height="26"
  viewBox="0 0 26 26"
  fill="none"
  xmlns="http://www.w3.org/2000/svg"
>
<path
    d="M23.2987 0H1.35064C0.607771 0 0 0.619033 0 1.37567V3.85184C0 4.60848 0.607771 5.22751 1.35064 5.22751H23.2312C23.974 5.22751 24.5818 4.60848 24.5818 3.85184V1.37567C24.6494 0.619033 24.0415 0 23.2987 0ZM23.2987 13.8254H1.35064C0.607771 13.8254 0 14.4444 0 15.2011V17.6772C0 18.4339 0.607771 19.0529 1.35064 19.0529H23.2312C23.974 19.0529 24.5818 18.4339 24.5818 17.6772V15.2011C24.6494 14.4444 24.0415 13.8254 23.2987 13.8254ZM13.7091 20.7725H1.35064C0.607771 20.7725 0 21.3915 0 22.1482V24.6243C0 25.381 0.607771 26 1.35064 26H13.7091C14.452 26 15.0597 25.381 15.0597 24.6243V22.1482C15.0597 21.3915 14.452 20.7725 13.7091 20.7725ZM24.6494 6.9471H1.35064C0.607771 6.9471 0 7.56613 0 8.32272V10.7989C0 11.5555 0.607771 12.1746 1.35064 12.1746H24.6494C25.3922 12.1746 26 11.5555 26 10.7989V8.32272C26 7.56613 25.3922 6.9471 24.6494 6.9471Z"
    fill="#0BA4DB"
  />
</svg>
