<svg xmlns="http://www.w3.org/2000/svg" width="57.519" height="56.129" viewBox="0 0 57.519 56.129">
  <path id="Path_546" data-name="Path 546" d="M219.916,166.865a12.721,12.721,0,0,0,.8-3.929V143.156l24.5,7.262a6.93,6.93,0,0,0-3.964-5.284l-.074-.668v-2.384a2.4,2.4,0,0,0-4.671-.042l-7.285-3.787V136.3a1.866,1.866,0,1,0-3.733,0v.018l-3.174-1.649a3.6,3.6,0,0,1-1.585-3.258V121.276c0-6.328-3.383-6.181-3.579-6.166-.2-.014-3.577-.162-3.577,6.166v10.5a3.4,3.4,0,0,1-1.585,2.886l-3.175,1.649V136.3a1.866,1.866,0,1,0-3.733,0v1.958l-7.285,3.787a2.4,2.4,0,0,0-4.67.042v2.384l-.075.668a6.93,6.93,0,0,0-3.964,5.284l24.485-7.259v19.776a12.729,12.729,0,0,0,.8,3.934L207.4,170.5l-.793,2.126,10.539-1.5,10.537,1.5-.792-2.126Z" transform="translate(172.626 -189.081) rotate(90)" fill="#f60"/>
</svg>
