<svg width="37" height="37" viewBox="0 0 37 37" fill="none" xmlns="http://www.w3.org/2000/svg">
<path d="M34.1325 12.6293C34.1325 11.7906 33.4464 11.1045 32.6076 11.1045C31.7689 11.1045 31.0827 11.7906 31.0827 12.6293V14.3832L28.8715 13.392V10.7234C28.8715 9.88462 28.1854 9.19851 27.3466 9.19851C26.5079 9.19851 25.8217 9.88462 25.8217 10.7234V12.0195L22.1616 10.4183C21.5513 3.86058 20.1787 0.200195 18.5012 0.200195C16.8236 0.200195 15.4511 3.8603 14.9173 10.4176L11.2572 12.0189L11.2572 10.7227C11.2572 9.88394 10.5711 9.19783 9.73232 9.19783C8.89357 9.19783 8.20745 9.88394 8.20745 10.7227L8.20745 13.3913L5.99619 14.3825L5.99619 12.6286C5.99619 11.7899 5.31008 11.1038 4.47132 11.1038C3.63257 11.1038 2.94645 11.7899 2.94645 12.6286L2.94645 15.755L0.201172 16.8991L0.201172 20.7879L14.765 18.0429C14.9937 23.3802 16.1375 28.7178 17.1287 32.3015L12.5537 35.8853V36.8002L18.5012 34.9703H18.5775L24.4486 36.8002V35.8851L19.8737 32.3013C20.8649 28.7175 22.0086 23.4564 22.2374 18.0427L36.8012 20.7879V16.8992L34.1325 15.7554L34.1325 12.6293Z" fill="#26205E"/>
</svg>
