<svg
  width="43"
  height="44"
  viewBox="0 0 43 44"
  fill="none"
  xmlns="http://www.w3.org/2000/svg"
>
<path
    d="M28.2644 40.5124C29.2453 40.5124 30.0476 39.7101 30.0476 38.7292C30.0476 37.7484 29.2453 36.9461 28.2644 36.9461H26.2135L27.3726 34.3603H30.4932C31.4741 34.3603 32.2764 33.558 32.2764 32.5772C32.2764 31.5964 31.4741 30.7941 30.4932 30.7941H28.9775L30.85 26.514C38.5185 25.8003 42.7988 24.1953 42.7988 22.2336C42.7988 20.2719 38.5188 18.667 30.8508 18.0428L28.9783 13.7628H30.494C31.4749 13.7628 32.2772 12.9604 32.2772 11.9796C32.2772 10.9988 31.4749 10.1965 30.494 10.1965L27.3734 10.1965L26.2143 7.61073H28.2652C29.2461 7.61073 30.0484 6.80841 30.0484 5.8276C30.0484 4.84679 29.2461 4.04447 28.2652 4.04447L24.6093 4.04447L23.2715 0.834229L18.724 0.834229L21.9339 17.8647C15.6926 18.1321 9.45089 19.4696 5.26015 20.6287L1.06934 15.2789H-0.000473022L2.13939 22.2336V22.3229L-0.000473022 29.1884H1.06958L5.2604 23.8386C9.45121 24.9977 15.6035 26.3351 21.9342 26.6026L18.7239 43.6331H23.2714L24.6089 40.5124L28.2644 40.5124Z"
    fill="#F1F1F1"
  />
</svg>
