<svg xmlns="http://www.w3.org/2000/svg" width="100" height="80" viewBox="0 0 100 80">
  <g id="icon" transform="translate(-1315 -3336)">
    <rect id="background" width="100" height="80" rx="5" transform="translate(1315 3336)" fill="#fff0d2"/>
    <path id="icon-2" data-name="icon" d="M-406.557,325.168a1.548,1.548,0,0,0,1.1.456,1.548,1.548,0,0,0,1.1-.456,1.548,1.548,0,0,0,0-2.195l-6.088-6.088h23.261a1.559,1.559,0,0,0,1.56-1.56,1.559,1.559,0,0,0-1.56-1.56h-23.261l6.088-6.088a1.548,1.548,0,0,0,0-2.195,1.548,1.548,0,0,0-2.195,0l-8.739,8.739a1.548,1.548,0,0,0,0,2.195Zm0,0" transform="translate(1765.74 3060.973)" fill="#ff6923"/>
  </g>
</svg>
