<svg
  width="19"
  height="19"
  viewBox="0 0 19 19"
  fill="none"
  xmlns="http://www.w3.org/2000/svg"
>
<path
    fill-rule="evenodd"
    clip-rule="evenodd"
    d="M1.84914 5.03583V6.33087L0.933458 7.2467C0.311201 7.86881 0 8.61998 0 9.49993C0 10.38 0.311201 11.131 0.933458 11.7533L1.84914 12.6691V13.9642C1.84914 14.8441 2.1602 15.5953 2.78245 16.2175C3.40471 16.8398 4.15588 17.151 5.03583 17.151H6.33087L7.2467 18.0667C7.86881 18.6889 8.61998 19 9.49993 19C10.38 19 11.131 18.6889 11.7534 18.0667L12.6691 17.151H13.9642C14.8441 17.151 15.5953 16.8398 16.2175 16.2175C16.8398 15.5953 17.1509 14.8441 17.1509 13.9642V12.6691L18.0667 11.7533C18.6889 11.131 19 10.38 19 9.49993C19 8.61998 18.6889 7.86881 18.0667 7.2467L17.1509 6.33087V5.03583C17.1509 4.15588 16.8398 3.40471 16.2175 2.78245C15.5953 2.1602 14.8441 1.84914 13.9642 1.84914H12.6691L11.7534 0.933312C11.131 0.311056 10.38 0 9.49993 0C8.61998 0 7.86881 0.311059 7.2467 0.933312L6.33087 1.84914H5.03583C4.15588 1.84914 3.40471 2.1602 2.78245 2.78245C2.1602 3.40471 1.84914 4.15588 1.84914 5.03583ZM6.9501 5.03754C5.67513 5.03754 5.03765 5.67502 5.03765 6.94999C5.03765 8.22496 5.67513 8.86244 6.9501 8.86244C8.22507 8.86244 8.86255 8.22496 8.86255 6.94999C8.86255 5.67502 8.22507 5.03754 6.9501 5.03754ZM7.24622 12.6553L12.6554 7.24615C12.7151 7.18638 12.7612 7.11737 12.7935 7.03925C12.826 6.96113 12.8421 6.87988 12.8421 6.79535C12.8421 6.71083 12.826 6.62944 12.7935 6.55146C12.7612 6.47334 12.7151 6.40432 12.6554 6.34456C12.5308 6.22005 12.3806 6.15787 12.2046 6.15787C12.0285 6.15787 11.8783 6.22005 11.7538 6.34456L6.34463 11.7537C6.22013 11.8782 6.15794 12.0285 6.15794 12.2045C6.15794 12.3805 6.22013 12.5308 6.34463 12.6553C6.4044 12.715 6.47341 12.7612 6.55153 12.7935C6.62951 12.8259 6.7109 12.842 6.79543 12.842C6.87995 12.842 6.96134 12.8259 7.03946 12.7935C7.11744 12.7612 7.18646 12.7151 7.24622 12.6553ZM10.1375 12.0498C10.1375 10.7749 10.775 10.1374 12.05 10.1374C13.3249 10.1374 13.9624 10.7749 13.9624 12.0498C13.9624 13.3248 13.3249 13.9623 12.05 13.9623C10.775 13.9623 10.1375 13.3248 10.1375 12.0498Z"
    fill="#261F5E"
  />
</svg>
