<svg
  xmlns="http://www.w3.org/2000/svg"
  width="40"
  height="32.364"
  viewBox="0 0 40 32.364"
>
  <g id="f0e60a997e8e4af60c77875aef0b57bc" transform="translate(-10 -103.53)">
    <g
      id="Group_14508"
      data-name="Group 14508"
      transform="translate(10 103.53)"
    >
      <path
        id="Path_528"
        data-name="Path 528"
        d="M10.744-407.293a1.6,1.6,0,0,0-.53.53c-.2.344-.214.465-.214,2.269v1.906l.214-.363a1.6,1.6,0,0,1,.53-.53c.307-.167.921-.177,16.433-.177H43.295v-1.432c0-1.321-.019-1.442-.214-1.739a1.515,1.515,0,0,0-.53-.474c-.307-.158-1.256-.167-15.9-.167C11.656-407.47,11.051-407.461,10.744-407.293Z"
        transform="translate(-10 407.47)"
        fill="#ff6923"
      />
      <path
        id="Path_529"
        data-name="Path 529"
        d="M10.986-267.774a1.488,1.488,0,0,0-.856.809c-.111.251-.13,2.371-.13,12.49,0,12.034,0,12.192.186,12.555a1.247,1.247,0,0,0,.558.558c.363.186.511.186,17.345.186s16.982,0,17.345-.186a1.247,1.247,0,0,0,.558-.558c.177-.344.186-.54.186-3.395v-3.022H40.532c-6.073,0-6.278-.019-7.468-.493a7.146,7.146,0,0,1-3.124-10.8,7.122,7.122,0,0,1,4.092-2.753c.7-.177,1.023-.186,6.445-.186h5.71l-.028-2.176c-.028-2.4-.037-2.418-.67-2.883l-.251-.2-16.991-.019C18.854-267.848,11.135-267.821,10.986-267.774Z"
        transform="translate(-10 273.54)"
        fill="#ff6923"
      />
      <path
        id="Path_530"
        data-name="Path 530"
        d="M515.946-92.291A4.986,4.986,0,0,0,513.4-90.85a4.708,4.708,0,0,0-1.432,2.585A5.257,5.257,0,0,0,515.4-82.21l.66.242h7.18c7.105,0,7.18,0,7.431-.2a2.544,2.544,0,0,0,.447-.447c.186-.251.2-.381.223-4.511l.028-4.25-.214-.316a2.727,2.727,0,0,0-.474-.5c-.26-.2-.325-.2-7.208-.214A74.643,74.643,0,0,0,515.946-92.291Zm1.813,3.357a1.866,1.866,0,0,1,.735,2.985,1.865,1.865,0,0,1-3.143-.484,1.716,1.716,0,0,1,.084-1.637A1.84,1.84,0,0,1,517.76-88.934Z"
        transform="translate(-491.366 105.265)"
        fill="#ff6923"
      />
    </g>
  </g>
</svg>
