<svg width="24" height="24" viewBox="0 0 24 24" fill="none" xmlns="http://www.w3.org/2000/svg">
<g clip-path="url(#clip0_2520_58284)">
<path d="M18.0478 0L7.75632 14.5337C6.92432 14.199 6.01601 14.1006 5.13164 14.2495C4.05464 14.4263 3.06699 14.9561 2.32403 15.7557C1.58107 16.5552 1.12498 17.579 1.02749 18.666C0.93 19.7531 1.19665 20.8417 1.78549 21.7606C2.37433 22.6796 3.25196 23.3767 4.2803 23.7423C5.30865 24.1079 6.42937 24.1213 7.46617 23.7804C8.50296 23.4395 9.39701 22.7635 10.0077 21.8589C10.6183 20.9543 10.9109 19.8724 10.8394 18.7833C10.768 17.6943 10.3365 16.6599 9.61287 15.8428L18.589 3.16668C18.7614 2.92322 18.8842 2.64819 18.9503 2.35728C19.0164 2.06638 19.0245 1.7653 18.9743 1.47124C18.924 1.17719 18.8163 0.895909 18.6573 0.643472C18.4984 0.391035 18.2912 0.172383 18.0478 0ZM5.94201 21.7281C5.42046 21.7281 4.91064 21.5734 4.477 21.2836C4.04337 20.9938 3.7054 20.582 3.50583 20.1001C3.30625 19.6183 3.25405 19.088 3.35581 18.5765C3.45756 18.065 3.70871 17.5951 4.0775 17.2263C4.44629 16.8576 4.91616 16.6064 5.42768 16.5046C5.9392 16.4029 6.46941 16.4551 6.95127 16.6547C7.43312 16.8542 7.84497 17.1922 8.13475 17.6258C8.42453 18.0595 8.57922 18.5693 8.57926 19.0908C8.57854 19.7901 8.30045 20.4604 7.80603 20.9549C7.3116 21.4493 6.64123 21.7274 5.94201 21.7281Z" fill="black"/>
<path d="M22.9345 18.5352C22.8102 17.4773 22.3468 16.488 21.6135 15.7154C20.8802 14.9427 19.9165 14.4282 18.8665 14.2488C17.9825 14.0996 17.0745 14.1984 16.2434 14.5344L13.9082 11.2344L12.5161 13.2L14.3882 15.8424C13.8458 16.4547 13.4652 17.1929 13.2809 17.9899C13.0966 18.7868 13.1145 19.6172 13.3329 20.4054C13.5514 21.1937 13.9635 21.9148 14.5317 22.5032C15.0999 23.0916 15.8062 23.5286 16.5864 23.7744C17.3665 24.0202 18.1958 24.067 18.9986 23.9106C19.8015 23.7543 20.5525 23.3996 21.1834 22.8789C21.8143 22.3583 22.3049 21.6882 22.6108 20.9295C22.9166 20.1709 23.0279 19.3478 22.9345 18.5352ZM18.0578 21.7272C17.5363 21.727 17.0267 21.5721 16.5933 21.2822C16.1598 20.9924 15.8221 20.5805 15.6228 20.0986C15.4234 19.6168 15.3714 19.0867 15.4734 18.5753C15.5753 18.064 15.8266 17.5943 16.1955 17.2258C16.5644 16.8572 17.0343 16.6063 17.5457 16.5048C18.0572 16.4033 18.5873 16.4558 19.0689 16.6555C19.5506 16.8553 19.9622 17.1934 20.2517 17.6271C20.5412 18.0608 20.6955 18.5706 20.6953 19.092C20.694 19.7909 20.4156 20.4608 19.9212 20.9548C19.4268 21.4487 18.7567 21.7265 18.0578 21.7272ZM11.4865 7.8144L10.0945 9.78L5.40973 3.1656C5.23732 2.92219 5.11458 2.64718 5.04853 2.35629C4.98248 2.06541 4.97442 1.76436 5.0248 1.47036C5.07518 1.17636 5.18301 0.895171 5.34214 0.642875C5.50127 0.390579 5.70857 0.172124 5.95218 0L11.4865 7.8144Z" fill="black"/>
</g>
<defs>
<clipPath id="clip0_2520_58284">
<rect width="24" height="24" fill="white"/>
</clipPath>
</defs>
</svg>
