<svg
  width="16"
  height="23"
  viewBox="0 0 16 23"
  fill="none"
  xmlns="http://www.w3.org/2000/svg"
>
<path
    d="M13.3268 13.4244V13.4233L13.3167 13.4244C13.3088 13.4244 13.3001 13.4233 13.2909 13.4233C12.9591 13.4209 12.6427 13.4522 12.3481 13.509L7.4836 13.9363L5.98263 13.979L5.9302 13.7987L6.9359 12.8818L15.8892 12.1499L15.813 11.75C15.6964 11.1044 14.412 10.6724 12.9349 10.7774V10.7768L12.9248 10.7783C12.9163 10.779 12.9082 10.779 12.899 10.7795C12.7324 10.7923 12.5715 10.8119 12.4167 10.8367L5.31292 11.6793L3.39108 5.0796C4.83296 3.87205 4.83135 1.60074 3.38297 0H0.341053C0.341053 0 0 0.200557 0 0.448158V4.96197C0 5.20938 0.152601 5.41012 0.341233 5.41012H0.377627L2.12327 11.4056L1.78474 11.4696L3.43127 17.1248L3.77017 17.0611L4.09122 18.1636L4.29859 18.1244V18.1625H5.87109C5.48806 18.6812 5.25711 19.3482 5.25711 20.0768C5.25711 20.0826 5.25819 20.0884 5.25819 20.0942C5.24738 20.8684 5.56429 21.5769 6.09273 22.1135C6.12138 22.1481 6.14949 22.1827 6.17273 22.2203C6.19237 22.2272 6.21038 22.2355 6.22948 22.2429C6.59954 22.5763 7.05697 22.8308 7.56865 22.9776V23H15.748V22.2628L7.92841 22.2626C7.13657 21.9348 6.51267 21.3359 6.20402 20.5977L6.14871 20.1403C6.28492 19.3094 6.72432 18.5997 7.33402 18.1627H16V14.8968C16.0054 14.0986 14.8134 13.4441 13.3272 13.4245L13.3268 13.4244Z"
    fill="#26205E"
  />
</svg>
