<svg width="24" height="24" viewBox="0 0 24 24" fill="none" xmlns="http://www.w3.org/2000/svg">
<path d="M13.0088 18.9596C13.0088 19.6316 12.4808 20.1596 11.8088 20.1596H9.26481V22.0316H9.74481C10.5608 22.0316 11.1848 22.6556 11.1848 23.4716H5.42481C5.42481 22.6556 6.04881 22.0316 6.86481 22.0316H7.34481V20.1596H5.47281C4.94481 20.1596 4.51281 19.8236 4.32081 19.3436C1.63281 11.5196 1.63281 11.8076 1.63281 11.5196C1.63281 10.9916 1.92081 10.5596 2.44881 10.3676C3.07281 10.1276 3.74481 10.5116 3.98481 11.0876C6.52881 18.4316 6.28881 17.7116 6.28881 17.7596H11.8088C12.4328 17.7596 13.0088 18.3356 13.0088 18.9596Z" fill="#261F5E"/>
<path d="M7.63039 7.63243C7.24639 6.62443 6.14239 6.14443 5.13439 6.52843C4.12639 6.91243 3.64639 8.01643 4.03039 9.02443L6.76639 15.8404C7.39039 17.3764 9.02239 17.0404 9.16639 17.0404L13.7744 17.0884L17.5184 22.8484C17.9504 23.5204 18.9104 23.7124 19.5824 23.2324C20.2064 22.7524 20.3504 21.8884 19.9184 21.2164L15.7424 14.8804C15.5024 14.4964 15.0224 14.2084 14.5424 14.2084L10.1744 14.1604L7.63039 7.63243Z" fill="#261F5E"/>
<path d="M4.17681 6.09581C5.58183 6.09581 6.72081 4.95683 6.72081 3.55181C6.72081 2.1468 5.58183 1.00781 4.17681 1.00781C2.7718 1.00781 1.63281 2.1468 1.63281 3.55181C1.63281 4.95683 2.7718 6.09581 4.17681 6.09581Z" fill="#261F5E"/>
<path d="M17.7564 0.480469C15.2124 0.480469 13.1484 2.54447 13.1484 5.08847V8.73647C13.1484 11.2805 15.2124 13.3445 17.7564 13.3445C20.3004 13.3445 22.3644 11.2805 22.3644 8.73647V5.08847C22.4124 2.59247 20.3004 0.480469 17.7564 0.480469ZM21.4524 8.78447C21.4524 10.8005 19.8204 12.4325 17.8044 12.4325C15.7884 12.4325 14.1564 10.8005 14.1564 8.78447V5.13647C14.1084 3.12047 15.7404 1.44047 17.7564 1.44047C19.7724 1.44047 21.4044 3.07247 21.4044 5.08847V8.78447H21.4524Z" fill="#261F5E"/>
<path d="M20.4943 8.78439V5.13639C20.4943 3.64839 19.2463 2.40039 17.7583 2.40039C16.2703 2.40039 15.0703 3.60039 15.0703 5.08839V8.73639C15.0703 10.2244 16.2703 11.4244 17.7583 11.4244C19.2463 11.4244 20.4943 10.2724 20.4943 8.78439Z" fill="#261F5E"/>
</svg>
