<svg width="17" height="17" viewBox="0 0 17 17" fill="none" xmlns="http://www.w3.org/2000/svg">
<path d="M9.21425 13.4304C9.21425 13.9064 8.84025 14.2804 8.36425 14.2804H6.56225V15.6064H6.90225C7.48025 15.6064 7.92225 16.0484 7.92225 16.6264H3.84225C3.84225 16.0484 4.28425 15.6064 4.86225 15.6064H5.20225V14.2804H3.87625C3.50225 14.2804 3.19625 14.0424 3.06025 13.7024C1.15625 8.16043 1.15625 8.36444 1.15625 8.16044C1.15625 7.78644 1.36025 7.48044 1.73425 7.34444C2.17625 7.17444 2.65225 7.44644 2.82225 7.85444C4.62425 13.0564 4.45425 12.5464 4.45425 12.5804H8.36425C8.80625 12.5804 9.21425 12.9884 9.21425 13.4304Z" fill="#261F5E"/>
<path d="M5.40909 5.40574C5.13709 4.69174 4.35509 4.35174 3.64109 4.62374C2.92709 4.89574 2.58709 5.67774 2.85909 6.39174L4.79709 11.2197C5.23909 12.3077 6.39509 12.0697 6.49709 12.0697L9.76109 12.1037L12.4131 16.1837C12.7191 16.6597 13.3991 16.7957 13.8751 16.4557C14.3171 16.1157 14.4191 15.5037 14.1131 15.0277L11.1551 10.5397C10.9851 10.2677 10.6451 10.0637 10.3051 10.0637L7.21109 10.0297L5.40909 5.40574Z" fill="#261F5E"/>
<path d="M2.95825 4.31787C3.95347 4.31787 4.76025 3.51108 4.76025 2.51587C4.76025 1.52065 3.95347 0.713867 2.95825 0.713867C1.96303 0.713867 1.15625 1.52065 1.15625 2.51587C1.15625 3.51108 1.96303 4.31787 2.95825 4.31787Z" fill="#261F5E"/>
<path d="M12.5765 0.339844C10.7745 0.339844 9.3125 1.80184 9.3125 3.60384V6.18784C9.3125 7.98984 10.7745 9.45184 12.5765 9.45184C14.3785 9.45184 15.8405 7.98984 15.8405 6.18784V3.60384C15.8745 1.83584 14.3785 0.339844 12.5765 0.339844ZM15.1945 6.22184C15.1945 7.64984 14.0385 8.80584 12.6105 8.80584C11.1825 8.80584 10.0265 7.64984 10.0265 6.22184V3.63784C9.9925 2.20984 11.1485 1.01984 12.5765 1.01984C14.0045 1.01984 15.1605 2.17584 15.1605 3.60384V6.22184H15.1945Z" fill="#261F5E"/>
<path d="M14.5217 6.2222V3.6382C14.5217 2.5842 13.6377 1.7002 12.5837 1.7002C11.5297 1.7002 10.6797 2.5502 10.6797 3.6042V6.1882C10.6797 7.2422 11.5297 8.0922 12.5837 8.0922C13.6377 8.0922 14.5217 7.2762 14.5217 6.2222Z" fill="#261F5E"/>
</svg>
