<svg width="19" height="20" viewBox="0 0 19 20" fill="none" xmlns="http://www.w3.org/2000/svg">
<path fill-rule="evenodd" clip-rule="evenodd" d="M17.2167 5.94559L16.6408 4.94631C16.1536 4.10077 15.074 3.80908 14.2273 4.29424C13.8243 4.53167 13.3433 4.59903 12.8906 4.48147C12.4378 4.36391 12.0504 4.07109 11.8138 3.66757C11.6616 3.41109 11.5798 3.11896 11.5767 2.82072C11.5904 2.34257 11.41 1.87922 11.0766 1.53623C10.7432 1.19323 10.2851 0.999803 9.80675 1H8.64657C8.17793 1 7.72861 1.18674 7.39803 1.51891C7.06745 1.85107 6.88287 2.30128 6.88512 2.76991C6.87123 3.73747 6.08287 4.51452 5.11521 4.51442C4.81697 4.51132 4.52484 4.42953 4.26836 4.2773C3.42166 3.79214 2.34202 4.08383 1.85484 4.92938L1.23664 5.94559C0.750058 6.79008 1.03778 7.86904 1.88025 8.35911C2.42787 8.67527 2.76522 9.25957 2.76522 9.89191C2.76522 10.5242 2.42787 11.1085 1.88025 11.4247C1.03885 11.9115 0.750814 12.9878 1.23664 13.8298L1.82097 14.8375C2.04923 15.2494 2.43222 15.5533 2.88518 15.682C3.33814 15.8108 3.82372 15.7537 4.23449 15.5234C4.63829 15.2878 5.11949 15.2233 5.57111 15.3441C6.02274 15.465 6.40738 15.7612 6.63954 16.1671C6.79176 16.4235 6.87356 16.7157 6.87665 17.0139C6.87665 17.9914 7.66907 18.7838 8.64657 18.7838H9.80675C10.7809 18.7838 11.572 17.9966 11.5767 17.0224C11.5744 16.5523 11.7601 16.1008 12.0926 15.7684C12.425 15.4359 12.8765 15.2502 13.3466 15.2525C13.6441 15.2604 13.935 15.3419 14.1934 15.4896C15.0379 15.9762 16.1169 15.6884 16.6069 14.846L17.2167 13.8298C17.4527 13.4247 17.5175 12.9422 17.3967 12.4892C17.2759 12.0362 16.9794 11.65 16.5731 11.4162C16.1667 11.1824 15.8703 10.7963 15.7495 10.3433C15.6287 9.89028 15.6935 9.40781 15.9295 9.00272C16.0829 8.73476 16.3051 8.51259 16.5731 8.35911C17.4105 7.86931 17.6975 6.79665 17.2167 5.95406V5.94559Z" stroke="white" stroke-width="1.5" stroke-linecap="round" stroke-linejoin="round"/>
<path d="M9.23565 12.3307C10.5826 12.3307 11.6744 11.2388 11.6744 9.8919C11.6744 8.545 10.5826 7.45312 9.23565 7.45312C7.88875 7.45312 6.79688 8.545 6.79688 9.8919C6.79688 11.2388 7.88875 12.3307 9.23565 12.3307Z" stroke="white" stroke-width="1.5" stroke-linecap="round" stroke-linejoin="round"/>
</svg>
