<svg width="25" height="24" viewBox="0 0 25 24" fill="none" xmlns="http://www.w3.org/2000/svg">
<g clip-path="url(#clip0_2169_53364)">
<path d="M19.5187 12.98C19.5587 12.66 19.5887 12.34 19.5887 12C19.5887 11.66 19.5587 11.34 19.5187 11.02L21.6287 9.37C21.8187 9.22 21.8687 8.95 21.7487 8.73L19.7487 5.27C19.6287 5.05 19.3587 4.97 19.1387 5.05L16.6487 6.05C16.1287 5.65 15.5687 5.32 14.9587 5.07L14.5787 2.42C14.5487 2.18 14.3387 2 14.0887 2H10.0887C9.83871 2 9.62871 2.18 9.59871 2.42L9.21871 5.07C8.60871 5.32 8.04871 5.66 7.52871 6.05L5.03871 5.05C4.80871 4.96 4.54871 5.05 4.42871 5.27L2.42871 8.73C2.29871 8.95 2.35871 9.22 2.54871 9.37L4.65871 11.02C4.61871 11.34 4.58871 11.67 4.58871 12C4.58871 12.33 4.61871 12.66 4.65871 12.98L2.54871 14.63C2.35871 14.78 2.30871 15.05 2.42871 15.27L4.42871 18.73C4.54871 18.95 4.81871 19.03 5.03871 18.95L7.52871 17.95C8.04871 18.35 8.60871 18.68 9.21871 18.93L9.59871 21.58C9.62871 21.82 9.83871 22 10.0887 22H14.0887C14.3387 22 14.5487 21.82 14.5787 21.58L14.9587 18.93C15.5687 18.68 16.1287 18.34 16.6487 17.95L19.1387 18.95C19.3687 19.04 19.6287 18.95 19.7487 18.73L21.7487 15.27C21.8687 15.05 21.8187 14.78 21.6287 14.63L19.5187 12.98ZM12.0887 15.5C10.1587 15.5 8.58871 13.93 8.58871 12C8.58871 10.07 10.1587 8.5 12.0887 8.5C14.0187 8.5 15.5887 10.07 15.5887 12C15.5887 13.93 14.0187 15.5 12.0887 15.5Z" fill="#26205E"/>
</g>
<defs>
<clipPath id="clip0_2169_53364">
<rect width="24" height="24" fill="white" transform="translate(0.0859375)"/>
</clipPath>
</defs>
</svg>
