<svg
  xmlns="http://www.w3.org/2000/svg"
  width="37.463"
  height="64"
  viewBox="0 0 37.463 64"
>
  <g
    id="Group_14348"
    data-name="Group 14348"
    transform="translate(-9310.071 -9238)"
  >
    <path
      id="Path_373"
      data-name="Path 373"
      d="M251.5,50.395h-6.837L242.4,54.914a3.106,3.106,0,0,1-2.795,1.725h-8.991a3.107,3.107,0,0,1-2.794-1.725l-2.264-4.519h-8.4a1.565,1.565,0,0,0-1.561,1.561v60.878a1.565,1.565,0,0,0,1.561,1.561H251.5a1.565,1.565,0,0,0,1.561-1.561V51.955a1.566,1.566,0,0,0-1.561-1.561ZM239.8,111.272H228.87a1.561,1.561,0,0,1,0-3.122H239.8a1.561,1.561,0,0,1,0,3.122Z"
      transform="translate(9094.469 9187.606)"
      fill="#f60"
    />
    <path
      id="Path_374"
      data-name="Path 374"
      d="M322.654,53.521l1.561-3.122h-12.12l1.568,3.122Z"
      transform="translate(9011.425 9187.602)"
      fill="#f60"
    />
  </g>
</svg>
