<svg
  xmlns="http://www.w3.org/2000/svg"
  width="19.606"
  height="18.676"
  viewBox="0 0 19.606 18.676"
>
  <path
    id="Path_330"
    data-name="Path 330"
    d="M90.06,25.522c.194-.392.511-.392.7,0l2.444,4.952a1.7,1.7,0,0,0,1.14.828l5.465.8c.433.063.531.365.218.67l-3.955,3.855a1.7,1.7,0,0,0-.435,1.34l.933,5.443c.074.431-.183.618-.57.414l-4.888-2.572a1.7,1.7,0,0,0-1.409,0l-4.888,2.57c-.388.2-.644.017-.57-.414l.933-5.443a1.7,1.7,0,0,0-.435-1.34l-3.955-3.855c-.314-.306-.216-.607.218-.67l5.465-.8a1.7,1.7,0,0,0,1.14-.828Z"
    transform="translate(-80.609 -25.227)"
  />
</svg>
