<svg
  xmlns="http://www.w3.org/2000/svg"
  width="22.042"
  height="18.231"
  viewBox="0 0 22.042 18.231"
>
  <g
    id="Group_14161"
    data-name="Group 14161"
    transform="translate(3506.806 732.404)"
  >
    <g
      id="Group_14154"
      data-name="Group 14154"
      transform="translate(-3506.806 -732.404)"
    >
      <path
        id="Path_326"
        data-name="Path 326"
        d="M316.17,235.67h2.709v2.709H316.17Z"
        transform="translate(-306.48 -228.276)"
      />
      <path
        id="Path_327"
        data-name="Path 327"
        d="M83.272,288.605H78.725V287H70v7.439a1.353,1.353,0,0,0,1.378,1.378H90.665a1.353,1.353,0,0,0,1.378-1.378V287H83.272Z"
        transform="translate(-70 -277.584)"
      />
      <path
        id="Path_328"
        data-name="Path 328"
        d="M90.665,51.184H85.659V48.521a.706.706,0,0,0-.689-.689h-7.9a.706.706,0,0,0-.689.689v2.664H71.378A1.353,1.353,0,0,0,70,52.562v3.306h8.771V54.307h4.546v1.561h8.725V52.562A1.382,1.382,0,0,0,90.665,51.184Zm-12.9,0V49.21h6.567v1.975Z"
        transform="translate(-70 -47.832)"
      />
    </g>
  </g>
</svg>
