<svg
  xmlns="http://www.w3.org/2000/svg"
  width="81"
  height="81"
  viewBox="0 0 81 81"
>
  <g id="Group_14418" data-name="Group 14418" transform="translate(-1269 -708)">
    <circle
      id="Ellipse_7"
      data-name="Ellipse 7"
      cx="40.5"
      cy="40.5"
      r="40.5"
      transform="translate(1269 708)"
      fill="#f60"
    />
    <path
      id="Path_291"
      data-name="Path 291"
      d="M122.032,77.84h8.5a12.851,12.851,0,0,1,12.831,12.831,12.654,12.654,0,0,1-3.655,8.9,2.635,2.635,0,0,0-.715,2.264l.636,4.33a1.018,1.018,0,0,1-1.43,1.073l-7.866-3.655a2.851,2.851,0,0,0-1.152-.238h-7.389A12.691,12.691,0,0,1,109.2,90.671,12.851,12.851,0,0,1,122.031,77.84Z"
      transform="translate(1183.218 655.918)"
      fill="#fff"
    />
  </g>
</svg>
