<svg
  width="30"
  height="30"
  viewBox="0 0 30 30"
  fill="none"
  xmlns="http://www.w3.org/2000/svg"
>
<circle cx="15" cy="15" r="14" stroke="white" stroke-width="2" />
<path
    d="M15.4066 20.2268C14.8626 20.2268 14.3826 20.1548 13.9666 20.0108C13.5586 19.8668 13.2146 19.6588 12.9346 19.3868C12.6546 19.1148 12.4386 18.7908 12.2866 18.4148C12.1346 18.0308 12.0426 17.6028 12.0106 17.1308H13.6426C13.6746 17.6748 13.8426 18.0748 14.1466 18.3308C14.4586 18.5788 14.8786 18.7028 15.4066 18.7028C15.9106 18.7028 16.3066 18.5788 16.5946 18.3308C16.8906 18.0748 17.0386 17.7348 17.0386 17.3108C17.0386 16.8548 16.8946 16.5148 16.6066 16.2908C16.3266 16.0588 15.9306 15.9428 15.4186 15.9428H14.0506V14.5268H15.4186C15.8666 14.5268 16.2066 14.4108 16.4386 14.1788C16.6786 13.9468 16.7986 13.6428 16.7986 13.2668C16.7986 12.9068 16.6706 12.6148 16.4146 12.3908C16.1586 12.1668 15.8106 12.0548 15.3706 12.0548C14.9146 12.0548 14.5466 12.1748 14.2666 12.4148C13.9866 12.6468 13.8346 13.0508 13.8106 13.6268H12.1906C12.2386 12.6828 12.5266 11.9308 13.0546 11.3708C13.5826 10.8108 14.3546 10.5308 15.3706 10.5308C15.8346 10.5308 16.2546 10.5948 16.6306 10.7228C17.0146 10.8508 17.3386 11.0308 17.6026 11.2628C17.8746 11.4868 18.0826 11.7588 18.2266 12.0788C18.3786 12.3908 18.4546 12.7388 18.4546 13.1228C18.4546 13.6268 18.3186 14.0668 18.0466 14.4428C17.7826 14.8188 17.4066 15.0668 16.9186 15.1868C17.5186 15.3468 17.9626 15.6268 18.2506 16.0268C18.5466 16.4188 18.6946 16.9148 18.6946 17.5148C18.6946 17.8908 18.6226 18.2468 18.4786 18.5828C18.3346 18.9108 18.1226 19.1988 17.8426 19.4468C17.5626 19.6868 17.2186 19.8788 16.8106 20.0228C16.4026 20.1588 15.9346 20.2268 15.4066 20.2268Z"
    fill="white"
  />
</svg>
