<svg xmlns="http://www.w3.org/2000/svg" width="37.708" height="39.95" viewBox="0 0 37.708 39.95">
  <g id="_0624ae2e27987448b9cb671c55e1f0fa" data-name="0624ae2e27987448b9cb671c55e1f0fa" transform="translate(-37.5 -10)">
    <path id="Path_531" data-name="Path 531" d="M37.5,91.761v0Z" transform="translate(0 -78.369)" fill="#ff6923"/>
    <path id="Path_532" data-name="Path 532" d="M110.1,172.853l12.446,4.533V151.675L110.1,146.6Z" transform="translate(-69.64 -131.031)" fill="#ff6923"/>
    <path id="Path_533" data-name="Path 533" d="M110.1,172.853l12.446,4.533V151.675L110.1,146.6Z" transform="translate(-69.64 -131.031)" fill="#ff6923"/>
    <path id="Path_534" data-name="Path 534" d="M110.1,172.853l12.446,4.533V151.675L110.1,146.6Z" transform="translate(-69.64 -131.031)" fill="#ff6923"/>
    <path id="Path_535" data-name="Path 535" d="M436.628,986.782l-.228-.082A1.367,1.367,0,0,0,436.628,986.782Z" transform="translate(-382.639 -936.884)" fill="#ff6923"/>
    <path id="Path_536" data-name="Path 536" d="M110.1,172.853l12.446,4.533V151.675L110.1,146.6Z" transform="translate(-69.64 -131.031)" fill="#ff6923"/>
    <path id="Path_537" data-name="Path 537" d="M140.663,11.427h0l12.5,4.986h0a.719.719,0,0,0,.31.069.738.738,0,0,0,.232-1.439h0l-12.466-4.977a.761.761,0,0,0-.306-.065.74.74,0,0,0-.273,1.427Z" transform="translate(-98.512)" fill="#ff6923"/>
    <path id="Path_538" data-name="Path 538" d="M37.6,818Z" transform="translate(-0.096 -775.062)" fill="#ff6923"/>
    <path id="Path_539" data-name="Path 539" d="M54.858,62.655l-15.205-6.2h0A1.492,1.492,0,0,0,37.5,57.731v.122a.791.791,0,0,0,.008.1h0V87.343a1.492,1.492,0,0,0,.946,1.3v0l15.311,5.581.228.082a1.562,1.562,0,0,0,.391.053,1.484,1.484,0,0,0,1.484-1.484V64.029A1.426,1.426,0,0,0,54.858,62.655ZM40.46,85.68v-.065h0V61.078a.818.818,0,0,1,1.129-.636h0l10.77,4.39v0a.812.812,0,0,1,.546.7V65.7h0v23.97a.82.82,0,0,1-.815.75A.748.748,0,0,1,51.9,90.4L40.961,86.413A.814.814,0,0,1,40.46,85.68Z" transform="translate(0 -44.413)" fill="#ff6923"/>
    <path id="Path_540" data-name="Path 540" d="M529.646,11.427h0l-12.5,4.982h0a.719.719,0,0,1-.31.069.738.738,0,0,1-.232-1.439h0l12.462-4.973a.761.761,0,0,1,.306-.065.74.74,0,0,1,.273,1.427Z" transform="translate(-459.09)" fill="#ff6923"/>
    <path id="Path_541" data-name="Path 541" d="M962.4,818Z" transform="translate(-887.196 -775.062)" fill="#ff6923"/>
    <path id="Path_542" data-name="Path 542" d="M512,64.225V93.071a1.484,1.484,0,0,0,1.484,1.484,1.537,1.537,0,0,0,.391-.053l.228-.082,15.311-5.581v0a1.493,1.493,0,0,0,.946-1.3V58.151h0a.8.8,0,0,0,.008-.1v-.122a1.492,1.492,0,0,0-2.152-1.276h0l-15.206,6.2A1.41,1.41,0,0,0,512,64.225Zm14.9,22.38-10.937,3.987a.748.748,0,0,1-.192.024.82.82,0,0,1-.815-.75V65.9h0v-.171a.829.829,0,0,1,.546-.7v0l10.774-4.395h0a.818.818,0,0,1,1.129.636V85.8h0v.065A.813.813,0,0,1,526.9,86.605Z" transform="translate(-455.157 -44.604)" fill="#ff6923"/>
  </g>
</svg>
