<svg width="22" height="22" viewBox="0 0 22 22" fill="none" xmlns="http://www.w3.org/2000/svg">
<path d="M6.92098 19.9382C15.2208 19.9382 19.7618 13.0602 19.7618 7.09738C19.7618 6.90402 19.7575 6.70636 19.7489 6.513C20.6322 5.87418 21.3945 5.0829 22 4.17636C21.1773 4.54239 20.3038 4.78144 19.4094 4.88535C20.3512 4.32084 21.0563 3.43402 21.3941 2.38929C20.5082 2.91435 19.5393 3.28473 18.529 3.48456C17.8483 2.76127 16.9482 2.28236 15.968 2.12188C14.9879 1.96141 13.9821 2.1283 13.1063 2.59676C12.2304 3.06522 11.5333 3.80915 11.1227 4.71354C10.7121 5.61793 10.6108 6.6324 10.8346 7.60011C9.04062 7.51009 7.28561 7.04407 5.68332 6.23226C4.08102 5.42046 2.66722 4.28099 1.53355 2.88773C0.957366 3.88114 0.781052 5.05668 1.04044 6.17542C1.29984 7.29416 1.97547 8.27217 2.93004 8.91066C2.21341 8.88791 1.51248 8.69496 0.885156 8.34777V8.40363C0.884514 9.44614 1.24492 10.4567 1.90512 11.2635C2.56531 12.0704 3.48455 12.6237 4.50656 12.8294C3.84272 13.011 3.14598 13.0375 2.47027 12.9068C2.75867 13.8033 3.31978 14.5875 4.07529 15.1498C4.8308 15.7121 5.74303 16.0246 6.68465 16.0435C5.08606 17.2992 3.11133 17.9803 1.07852 17.9771C0.718013 17.9765 0.357866 17.9544 0 17.9109C2.06512 19.2358 4.4674 19.9394 6.92098 19.9382Z" fill="white"/>
</svg>
