<svg
  id="twitter"
  xmlns="http://www.w3.org/2000/svg"
  width="27.334"
  height="27.334"
  viewBox="0 0 27.334 27.334"
>
  <path
    id="Path_64"
    data-name="Path 64"
    d="M-4395.876,2260.61a13.683,13.683,0,0,0,13.667-13.667,13.683,13.683,0,0,0-13.667-13.667,13.682,13.682,0,0,0-13.667,13.667,13.683,13.683,0,0,0,13.667,13.667Zm0-25.968a12.315,12.315,0,0,1,12.3,12.3,12.315,12.315,0,0,1-12.3,12.3,12.315,12.315,0,0,1-12.3-12.3,12.315,12.315,0,0,1,12.3-12.3Zm0,0"
    transform="translate(4409.543 -2233.276)"
    fill="#200e32"
  />
  <g id="Group_50" data-name="Group 50" transform="translate(7.541 8.649)">
    <path
      id="Path_65"
      data-name="Path 65"
      d="M-4295.822,2350.84a5,5,0,0,1-1.444.4,2.543,2.543,0,0,0,1.1-1.4,5.037,5.037,0,0,1-1.6.615,2.5,2.5,0,0,0-1.835-.8,2.524,2.524,0,0,0-2.513,2.534,2.558,2.558,0,0,0,.065.578,7.117,7.117,0,0,1-5.18-2.648,2.531,2.531,0,0,0-.34,1.274,2.54,2.54,0,0,0,1.118,2.109,2.5,2.5,0,0,1-1.138-.318v.031a2.532,2.532,0,0,0,2.016,2.486,2.513,2.513,0,0,1-.662.089,2.4,2.4,0,0,1-.473-.047,2.517,2.517,0,0,0,2.348,1.76,5.017,5.017,0,0,1-3.122,1.083,5.337,5.337,0,0,1-.6-.035,7.06,7.06,0,0,0,3.853,1.14,7.134,7.134,0,0,0,7.151-7.211l-.008-.328a5.047,5.047,0,0,0,1.257-1.309Zm0,0"
      transform="translate(4308.074 -2349.652)"
      fill="#200e32"
    />
  </g>
</svg>
