<svg
  width="34"
  height="34"
  viewBox="0 0 34 34"
  fill="none"
  xmlns="http://www.w3.org/2000/svg"
>
<circle cx="17" cy="17" r="16" stroke="white" stroke-width="2" />
<path
    d="M13.444 19.872C13.612 19.784 13.844 19.656 14.14 19.488C14.444 19.32 14.772 19.12 15.124 18.888C15.476 18.648 15.836 18.388 16.204 18.108C16.58 17.82 16.92 17.52 17.224 17.208C17.64 16.784 17.956 16.356 18.172 15.924C18.396 15.492 18.508 15.04 18.508 14.568C18.508 14.064 18.36 13.676 18.064 13.404C17.776 13.132 17.384 12.996 16.888 12.996C16.416 12.996 16.028 13.12 15.724 13.368C15.42 13.616 15.252 14.016 15.22 14.568H13.6C13.624 14.096 13.708 13.672 13.852 13.296C13.996 12.912 14.204 12.588 14.476 12.324C14.748 12.052 15.084 11.844 15.484 11.7C15.884 11.548 16.352 11.472 16.888 11.472C17.368 11.472 17.808 11.54 18.208 11.676C18.616 11.812 18.964 12.012 19.252 12.276C19.54 12.532 19.764 12.848 19.924 13.224C20.084 13.6 20.164 14.024 20.164 14.496C20.164 15.152 20.012 15.744 19.708 16.272C19.412 16.792 19.004 17.3 18.484 17.796C18.252 18.02 18.008 18.228 17.752 18.42C17.504 18.612 17.264 18.784 17.032 18.936C16.808 19.088 16.604 19.216 16.42 19.32C16.236 19.416 16.096 19.484 16 19.524L20.344 19.488V21H13.444V19.872Z"
    fill="white"
  />
</svg>
