<svg
  xmlns="http://www.w3.org/2000/svg"
  width="48"
  height="48"
  viewBox="0 0 48 48"
>
  <g id="Group_14419" data-name="Group 14419" transform="translate(-1307 -661)">
    <g
      id="Group_14412"
      data-name="Group 14412"
      transform="translate(38 -47.461)"
    >
      <circle
        id="Ellipse_7"
        data-name="Ellipse 7"
        cx="24"
        cy="24"
        r="24"
        transform="translate(1269 708.461)"
        fill="#257e22"
      />
    </g>
    <path
      id="WhatsApp"
      d="M22.414,5.528A11.913,11.913,0,0,0,3.463,19.534L2.035,24.875A.894.894,0,0,0,2.9,26a1.47,1.47,0,0,0,.228-.024l5.485-1.44a11.543,11.543,0,0,0,5.317,1.32A12.014,12.014,0,0,0,26,13.929,11.871,11.871,0,0,0,22.414,5.528ZM19.005,17.9,18,18.9c-1.056,1.056-3.84-.1-6.325-2.58s-3.588-5.269-2.58-6.325l1-1.008a1.219,1.219,0,0,1,.7-.276,1.271,1.271,0,0,1,.732.276c.864.6,1.308.9,1.476,1.476a2.222,2.222,0,0,1-.18,1.572,4.148,4.148,0,0,0,1.164,2.148,4.329,4.329,0,0,0,2.172,1.152A1.84,1.84,0,0,1,17.529,15c.516.108.828.576,1.476,1.476a1.3,1.3,0,0,1,.276.7A1.2,1.2,0,0,1,19.005,17.9Z"
      transform="translate(1316.996 670.998)"
      fill="#fff"
    />
  </g>
</svg>
