<svg
  xmlns="http://www.w3.org/2000/svg"
  width="27.334"
  height="27.334"
  viewBox="0 0 27.334 27.334"
>
  <g id="fb" transform="translate(-0.001)">
    <path
      id="Path_62"
      data-name="Path 62"
      d="M-4979.32,2260.61a13.683,13.683,0,0,0,13.667-13.667,13.683,13.683,0,0,0-13.667-13.667,13.683,13.683,0,0,0-13.667,13.667,13.683,13.683,0,0,0,13.667,13.667Zm0-25.968a12.315,12.315,0,0,1,12.3,12.3,12.315,12.315,0,0,1-12.3,12.3,12.315,12.315,0,0,1-12.3-12.3,12.315,12.315,0,0,1,12.3-12.3Zm0,0"
      transform="translate(4992.987 -2233.276)"
      fill="#200e32"
    />
    <g id="Group_48" data-name="Group 48" transform="translate(11.153 8.649)">
      <path
        id="Path_63"
        data-name="Path 63"
        d="M-4839.769,2353.1v-1.255a.628.628,0,0,1,.629-.627h.628v-1.568h-1.257a1.884,1.884,0,0,0-1.885,1.882v1.568h-1.257v1.568h1.257v5.018h1.885v-5.018h1.886V2353.1Zm0,0"
        transform="translate(4842.911 -2349.652)"
        fill="#200e32"
      />
    </g>
  </g>
</svg>
