<svg
  width="1827"
  height="259"
  viewBox="0 0 1827 259"
  fill="none"
  xmlns="http://www.w3.org/2000/svg"
>
<path
    d="M1817.87 217.8L1817.8 217.83L1073.57 1H756.249L9.12869 217.8C6.49869 219.56 3.07869 223.68 1.64869 230.35C0.238689 237.02 0.858689 246.19 6.20869 258.03L852.119 157.47L853.099 157.35L853.439 157.89L860.559 169.7L860.599 169.77C860.649 169.84 860.689 169.93 860.779 170.04C860.939 170.27 861.169 170.62 861.459 171.04C862.069 171.9 862.959 173.14 864.159 174.62C866.539 177.59 870.099 181.55 874.769 185.5C884.129 193.45 897.709 201.17 914.999 201.17C932.289 201.17 945.869 193.45 955.229 185.5C959.879 181.55 963.439 177.59 965.839 174.62C967.039 173.14 967.929 171.9 968.539 171.04C968.829 170.62 969.059 170.27 969.219 170.04C969.289 169.93 969.359 169.84 969.399 169.77L969.449 169.71L976.569 157.89L976.909 157.35L977.879 157.47L1820.82 258.02C1826.17 246.19 1826.78 237.02 1825.37 230.35C1823.97 223.68 1820.52 219.56 1817.89 217.8H1817.87Z"
    fill="url(#paint0_linear_1430_14176)"
    stroke="#BCBAF7"
  />
<defs>
<linearGradient
      id="paint0_linear_1430_14176"
      x1="-1228.08"
      y1="129.52"
      x2="3056.87"
      y2="129.52"
      gradientUnits="userSpaceOnUse"
    >
<stop stop-color="#99BBFF" />
<stop offset="0.49" stop-color="#CCCCFF" />
<stop offset="1" stop-color="#99BBFF" />
</linearGradient>
</defs>
</svg>
