<svg  viewBox="0 0 1827 2147" fill="none" xmlns="http://www.w3.org/2000/svg">
<path
    d="M1817.87 2105.8L1817.8 2105.83L1073.57 1889H756.249L9.12869 2105.8C6.49869 2107.56 3.07869 2111.68 1.64869 2118.35C0.238689 2125.02 0.858689 2134.19 6.20869 2146.03L852.119 2045.47L853.099 2045.35L853.439 2045.89L860.559 2057.7L860.599 2057.77C860.649 2057.84 860.689 2057.93 860.779 2058.04C860.939 2058.27 861.169 2058.62 861.459 2059.04C862.069 2059.9 862.959 2061.14 864.159 2062.62C866.539 2065.59 870.099 2069.55 874.769 2073.5C884.129 2081.45 897.709 2089.17 914.999 2089.17C932.289 2089.17 945.869 2081.45 955.229 2073.5C959.879 2069.55 963.439 2065.59 965.839 2062.62C967.039 2061.14 967.929 2059.9 968.539 2059.04C968.829 2058.62 969.059 2058.27 969.219 2058.04C969.289 2057.93 969.359 2057.84 969.399 2057.77L969.449 2057.71L976.569 2045.89L976.909 2045.35L977.879 2045.47L1820.82 2146.02C1826.17 2134.19 1826.78 2125.02 1825.37 2118.35C1823.97 2111.68 1820.52 2107.56 1817.89 2105.8H1817.87Z"
    fill="url(#paint0_linear_1430_14195)"
    stroke="#BCBAF7"
  />
<path
    d="M1137.57 1903.71C1155.81 1858.29 1174.7 1800.29 1174.7 1754.9V1714.66H1171.48V945.56C1169.78 944.18 1168.88 942.62 1168.88 941V411.14C1168.88 390.59 1164.75 370.15 1156.27 350.2C1139.57 310.81 1109.27 240.87 1083.95 190.43C1064.77 152.24 1038.8 104.8 1009.2 66.92C994.4 47.98 978.71 31.46 962.53 19.69C946.32 7.88 929.84 1 913.48 1C897.12 1 880.84 7.82 864.86 19.55C848.93 31.26 833.51 47.69 818.92 66.58C789.68 104.35 763.73 151.79 743.03 190.44C715.79 241.36 685.64 312.47 669.62 351.62C661.85 370.62 658.11 390.07 658.11 409.6V940.99C658.11 942.03 657.72 943.04 657 944V1799.12C663.75 1834.42 676.75 1872.11 689.44 1903.71H1137.57Z"
    fill="url(#paint1_linear_1430_14195)"
    stroke="#BCBAF7"
  />
<path
    d="M673.56 388.24C673.56 388.24 673.56 386.11 727.3 277.55C740.26 251.4 844.38 252 913.55 252C982.72 252 1086.87 251.38 1099.8 277.55C1153.54 386.12 1153.54 388.24 1153.54 388.24V1794.93L1121.83 1846.24C1105.78 1872.18 913.55 1872 913.55 1872C913.55 1872 721.32 1872.18 705.27 1846.24L673.54 1794.93V388.24H673.57H673.56Z"
    fill="white"
    stroke="white"
  />
<path
    d="M738.572 222.868L761.752 184.333C771.59 168.001 789.254 158 808.331 158H896.189C902.194 158 907.059 162.864 907.059 168.87V217.487C907.059 223.493 902.194 228.33 896.189 228.466C867.057 229.118 849.175 232.27 818.141 234.716C800.776 236.075 791.346 236.944 773.682 238.385C765.801 239.01 755.828 239.064 747.349 238.955C739.142 238.847 734.332 229.906 738.572 222.868Z"
    fill="black"
  />
<path
    d="M1093.67 222.868L1070.49 184.333C1060.65 168.001 1042.99 158 1023.91 158H936.054C930.048 158 925.184 162.864 925.184 168.87V217.487C925.184 223.493 930.048 228.33 936.054 228.466C965.186 229.118 983.068 232.27 1014.1 234.716C1031.47 236.075 1040.9 236.944 1058.56 238.385C1066.44 239.01 1076.39 239.064 1084.89 238.955C1093.1 238.847 1097.88 229.906 1093.64 222.868H1093.67Z"
    fill="black"
  />
<defs>
<linearGradient
      id="paint0_linear_1430_14195"
      x1="-1228.08"
      y1="2017.52"
      x2="3056.87"
      y2="2017.52"
      gradientUnits="userSpaceOnUse"
    >
<stop stop-color="#99BBFF" />
<stop offset="0.49" stop-color="#CCCCFF" />
<stop offset="1" stop-color="#99BBFF" />
</linearGradient>
<linearGradient
      id="paint1_linear_1430_14195"
      x1="-1229.54"
      y1="952.35"
      x2="3055.41"
      y2="952.35"
      gradientUnits="userSpaceOnUse"
    >
<stop stop-color="#99BBFF" />
<stop offset="0.49" stop-color="#CCCCFF" />
<stop offset="1" stop-color="#99BBFF" />
</linearGradient>
</defs>
</svg>
