<svg
  width="13"
  height="13"
  viewBox="0 0 13 13"
  fill="none"
  xmlns="http://www.w3.org/2000/svg"
>
<path
    d="M12.4906 10.0329L8.95776 6.50174L12.4886 2.97059C13.1678 2.29336 13.1678 1.19112 12.4886 0.513884C11.8095 -0.169307 10.7113 -0.167321 10.0321 0.511898L6.49926 4.04304L2.96639 0.507926C2.28723 -0.171293 1.18705 -0.167321 0.507886 0.507926C-0.169295 1.18715 -0.169295 2.28939 0.507886 2.96662L4.04273 6.50174L0.51583 10.0269C-0.163338 10.7061 -0.163338 11.8084 0.51583 12.4836C0.855413 12.8252 1.29826 12.994 1.7431 12.994C2.18992 12.994 2.63277 12.8252 2.97235 12.4856L6.49926 8.95845L10.0341 12.4916C10.3737 12.8312 10.8165 13 11.2614 13C11.7062 13 12.151 12.8292 12.4906 12.4916C13.1698 11.8124 13.1698 10.7121 12.4906 10.0329Z"
    fill="#26205E"
  />
</svg>
